<svg width="1921" height="495" viewBox="0 0 1921 495" fill="none" xmlns="http://www.w3.org/2000/svg">
<path opacity="0.6" d="M982.51 287.44C853.14 299.84 491.69 316.85 706.83 287.44C921.97 258.03 1210.44 292.18 1010.76 262.72C811.08 233.26 764.47 210.19 660.32 200.82C556.16 191.45 230.33 228.67 338.44 196.13C446.55 163.58 640.59 146.68 702.26 157.45C763.92 168.23 676.77 129.77 580.14 123.45C483.51 117.13 471.22 118.56 623.31 121.72C775.39 124.88 864.94 115.28 925.32 118.53C985.7 121.78 1084.41 121.47 1130.01 118.53C1175.61 115.59 963.39 166.8 954.15 166.74C944.91 166.68 1071.09 161.42 1217.67 146.25C1364.25 131.07 1589.93 155.23 1551.65 146.25C1513.37 137.27 1083.93 153.86 1243.21 115.37C1402.49 76.8799 1566.52 62.88 1622.98 62.88C1679.44 62.88 1740.51 59.7099 1742.93 73.7199C1745.35 87.7199 1559.15 130.24 1555.38 129.88C1551.61 129.53 1721 127.98 1741.46 138.82C1761.92 149.66 1904.74 157.17 1652.34 177.42C1399.94 197.66 1190.97 184.99 1201.77 192.87C1212.57 200.76 1701.69 220.88 1629.2 233.27C1556.71 245.66 1365.31 253.15 1225.85 250.18C1086.39 247.21 692.56 204.46 1100.39 250.18C1508.21 295.9 1716.59 307.3 1469.04 307.45C1221.49 307.6 1163.35 301.39 1107.03 304.49C1050.7 307.6 973.74 285.89 973.74 285.89" fill="url(#paint0_linear_4503_28018)"/>
<path opacity="0.6" d="M1076.95 402.357C1154.7 387.175 1207.15 320.757 1194.12 254.01C1181.08 187.262 1107.49 145.461 1029.75 160.643C952 175.826 899.542 242.243 912.577 308.991C925.612 375.738 999.204 417.54 1076.95 402.357Z" fill="url(#paint1_radial_4503_28018)"/>
<path d="M1118.03 184.39C1102.67 181.09 1086.75 179.67 1070.62 180.33C1070.5 180.72 1070.38 181.13 1070.26 181.55C1069.51 184.15 1068.77 187.17 1068.18 189.95C1067.98 190.9 1067.8 191.83 1067.64 192.7C1050.58 193.76 1034.23 197.15 1018.61 202.86C1016.23 199.67 1012.9 195.73 1010.19 192.85C995.27 198.63 981.49 206.22 969.09 215.29C966.68 221.34 964.62 227.3 962.88 233.18C956.76 253.91 954.71 273.58 955.86 292.42C956.78 307.63 959.79 322.3 964.41 336.55C964.8 337.74 965.19 338.93 965.6 340.12C971.3 342.57 976.88 344.68 982.35 346.48C984.07 347.05 985.77 347.58 987.47 348.09C1000.95 352.11 1013.78 354.31 1026.19 355.35C1029.19 348.72 1031.63 341.83 1033.45 334.72C1026.5 333.74 1019.7 332.15 1013.12 330.04C1014.4 328.64 1015.63 327.2 1016.8 325.73C1055.84 334.12 1094.18 326.18 1125.28 303.25C1127.03 304.11 1128.8 304.93 1130.58 305.7C1125.57 310.23 1120.12 314.36 1114.28 317.99C1119.17 323.69 1124.5 328.98 1130.26 333.8C1146.71 324.88 1162.81 313.13 1178.21 296.07C1171.92 250.28 1150.54 213.87 1118.01 184.4L1118.03 184.39ZM1030.6 301.66C1020.01 303.86 1009.07 296.25 1006.32 284.78C1003.57 273.32 1009.82 262.13 1020.6 259.9C1031.38 257.67 1042.32 265.28 1044.88 276.79C1047.64 288.25 1041.38 299.42 1030.6 301.66ZM1101.84 286.9C1091.25 289.1 1080.31 281.49 1077.56 270.02C1074.82 258.56 1081.06 247.37 1091.84 245.14C1102.62 242.9 1113.56 250.52 1116.12 262.03C1118.87 273.49 1112.62 284.66 1101.84 286.9Z" fill="#FFF3F3"/>
<path d="M894.54 323.18C893.58 320.45 891.67 320.16 890.55 322.62C889.25 325.48 887.85 327.75 886.58 328.18C884.37 328.94 884.37 329.42 882.23 331.33C880.43 332.94 883.66 332.7 885.41 332.09C887.02 331.53 890.31 331.04 888.17 333.04C886.39 334.7 878.09 337.16 878.36 338.86C878.63 340.56 892.38 337.52 889.62 338.86C883.35 341.89 876.5 346.39 876.63 347.73C876.77 349.07 885.95 346.68 886.16 347.25C886.37 347.82 878.42 352.02 877.04 353.73C875.66 355.44 885.05 356.31 885.47 357.26C885.89 358.21 870.76 361.83 871.25 363.61C871.75 365.39 887.4 364.4 885.33 366.5C883.26 368.6 868.61 374.71 869.86 375.09C871.11 375.47 875.66 376.62 874 378.52C872.34 380.43 868.88 387.1 869.78 387.68C870.68 388.26 909.23 395.5 909.23 395.5C909.23 395.5 910.47 385.96 913.79 386.92C917.11 387.87 913.65 383.68 909.23 381.2C904.81 378.72 910.75 377.58 912.82 377.58C914.89 377.58 907.98 372.43 904.12 370.52C900.25 368.61 907.85 369.95 910.2 368.8C912.55 367.66 896.94 358.98 898.18 358.6C899.42 358.22 906.33 363.46 907.3 359.65C908.27 355.84 895.7 350.21 897.77 349.06C899.84 347.92 912 350.11 910.34 347.44C908.68 344.77 894.94 341.24 896.18 340.67C897.42 340.1 905.64 341.15 904.95 339.43C904.26 337.71 892.52 331.99 894.87 331.99C897.22 331.99 903.23 332.94 901.29 330.94C900.25 329.86 896.58 328.94 894.54 323.17V323.18Z" fill="#282133"/>
<path d="M1522.65 257.64C1521.69 255.2 1519.78 254.94 1518.66 257.14C1517.36 259.7 1515.96 261.72 1514.69 262.11C1512.48 262.79 1512.48 263.22 1510.34 264.92C1508.54 266.35 1511.77 266.14 1513.52 265.6C1515.13 265.1 1518.42 264.66 1516.28 266.45C1514.5 267.93 1506.2 270.13 1506.47 271.65C1506.74 273.17 1520.49 270.46 1517.73 271.65C1511.46 274.36 1504.61 278.38 1504.74 279.57C1504.88 280.76 1514.06 278.63 1514.27 279.14C1514.48 279.65 1506.53 283.4 1505.15 284.93C1503.77 286.46 1513.16 287.23 1513.58 288.08C1513.99 288.93 1498.87 292.17 1499.36 293.75C1499.86 295.34 1515.51 294.45 1513.44 296.33C1511.37 298.21 1496.72 303.66 1497.97 304C1499.22 304.34 1503.77 305.36 1502.11 307.07C1500.45 308.78 1496.99 314.74 1497.89 315.25C1498.79 315.76 1537.34 322.23 1537.34 322.23C1537.34 322.23 1538.58 313.71 1541.9 314.56C1545.22 315.41 1541.76 311.66 1537.34 309.45C1532.92 307.24 1538.86 306.21 1540.93 306.21C1543 306.21 1536.09 301.61 1532.23 299.91C1528.36 298.21 1535.96 299.4 1538.31 298.38C1540.66 297.36 1525.05 289.61 1526.29 289.27C1527.53 288.93 1534.44 293.61 1535.41 290.21C1536.38 286.8 1523.81 281.78 1525.88 280.76C1527.95 279.74 1540.11 281.7 1538.45 279.31C1536.79 276.93 1523.05 273.77 1524.29 273.26C1525.53 272.75 1533.75 273.69 1533.06 272.15C1532.37 270.62 1520.63 265.51 1522.98 265.51C1525.33 265.51 1531.34 266.36 1529.4 264.57C1528.36 263.6 1524.69 262.79 1522.65 257.63V257.64Z" fill="#282133"/>
<path d="M1567.24 250.04C1566.11 247.17 1563.86 246.86 1562.53 249.45C1560.99 252.46 1559.35 254.84 1557.86 255.31C1555.26 256.11 1555.26 256.61 1552.73 258.62C1550.61 260.31 1554.42 260.06 1556.47 259.42C1558.36 258.83 1562.25 258.32 1559.73 260.42C1557.64 262.17 1547.85 264.76 1548.17 266.54C1548.49 268.32 1564.69 265.14 1561.44 266.54C1554.05 269.73 1545.98 274.47 1546.14 275.87C1546.3 277.27 1557.12 274.77 1557.37 275.37C1557.62 275.97 1548.26 280.39 1546.63 282.19C1545 284 1556.07 284.9 1556.56 285.9C1557.05 286.9 1539.22 290.71 1539.81 292.58C1540.4 294.45 1558.84 293.41 1556.4 295.62C1553.96 297.83 1536.71 304.26 1538.17 304.66C1539.63 305.06 1545.01 306.27 1543.05 308.27C1541.1 310.28 1537.01 317.3 1538.08 317.9C1539.15 318.5 1584.56 326.13 1584.56 326.13C1584.56 326.13 1586.02 316.1 1589.93 317.1C1593.84 318.1 1589.77 313.69 1584.56 311.08C1579.35 308.47 1586.35 307.27 1588.79 307.27C1591.23 307.27 1583.09 301.85 1578.54 299.84C1573.99 297.83 1582.93 299.24 1585.7 298.03C1588.47 296.83 1570.07 287.69 1571.54 287.29C1573 286.89 1581.14 292.41 1582.28 288.39C1583.42 284.38 1568.61 278.46 1571.05 277.25C1573.49 276.04 1587.81 278.35 1585.86 275.54C1583.91 272.73 1567.71 269.02 1569.18 268.42C1570.64 267.82 1580.33 268.92 1579.52 267.12C1578.71 265.31 1564.87 259.29 1567.64 259.29C1570.41 259.29 1577.49 260.29 1575.21 258.19C1573.98 257.05 1569.66 256.09 1567.25 250.01L1567.24 250.04Z" fill="#282133"/>
<path d="M1703.44 246.25C1702.31 243.76 1700.06 243.49 1698.73 245.74C1697.19 248.36 1695.55 250.42 1694.06 250.82C1691.46 251.52 1691.46 251.95 1688.93 253.7C1686.81 255.17 1690.62 254.95 1692.67 254.4C1694.56 253.89 1698.45 253.44 1695.93 255.27C1693.84 256.79 1684.05 259.04 1684.37 260.59C1684.69 262.14 1700.89 259.37 1697.64 260.59C1690.25 263.36 1682.18 267.47 1682.34 268.69C1682.5 269.91 1693.32 267.73 1693.57 268.25C1693.82 268.77 1684.46 272.61 1682.83 274.18C1681.2 275.75 1692.27 276.53 1692.76 277.4C1693.25 278.27 1675.42 281.58 1676.01 283.2C1676.6 284.82 1695.04 283.92 1692.6 285.84C1690.16 287.76 1672.91 293.34 1674.37 293.69C1675.83 294.04 1681.21 295.08 1679.25 296.83C1677.3 298.57 1673.21 304.67 1674.28 305.2C1675.35 305.73 1720.76 312.35 1720.76 312.35C1720.76 312.35 1722.22 303.64 1726.13 304.51C1730.04 305.38 1725.97 301.55 1720.76 299.28C1715.55 297.01 1722.55 295.97 1724.99 295.97C1727.43 295.97 1719.29 291.26 1714.74 289.52C1710.18 287.78 1719.13 289 1721.9 287.95C1724.67 286.9 1706.27 278.97 1707.74 278.63C1709.21 278.29 1717.34 283.07 1718.48 279.59C1719.62 276.11 1704.81 270.96 1707.25 269.92C1709.69 268.87 1724.01 270.88 1722.06 268.44C1720.11 266 1703.91 262.78 1705.38 262.25C1706.85 261.72 1716.53 262.69 1715.72 261.12C1714.91 259.55 1701.07 254.32 1703.84 254.32C1706.61 254.32 1713.69 255.19 1711.41 253.36C1710.18 252.37 1705.86 251.54 1703.45 246.26L1703.44 246.25Z" fill="#282133"/>
<path d="M1749.73 242.92C1748.37 239.34 1745.68 238.95 1744.1 242.18C1742.26 245.94 1740.3 248.91 1738.51 249.49C1735.39 250.49 1735.39 251.12 1732.38 253.62C1729.84 255.73 1734.4 255.42 1736.86 254.62C1739.13 253.89 1743.77 253.24 1740.76 255.87C1738.26 258.05 1726.54 261.28 1726.93 263.51C1727.32 265.74 1746.69 261.76 1742.8 263.51C1733.96 267.49 1724.3 273.4 1724.49 275.16C1724.68 276.91 1737.63 273.78 1737.93 274.53C1738.23 275.28 1727.02 280.79 1725.08 283.05C1723.13 285.3 1736.38 286.43 1736.96 287.68C1737.54 288.93 1716.22 293.69 1716.92 296.02C1717.62 298.35 1739.69 297.05 1736.77 299.82C1733.85 302.59 1713.2 310.6 1714.96 311.1C1716.71 311.6 1723.14 313.1 1720.8 315.61C1718.46 318.11 1713.58 326.88 1714.85 327.63C1716.12 328.38 1770.46 337.9 1770.46 337.9C1770.46 337.9 1772.21 325.38 1776.89 326.63C1781.57 327.88 1776.7 322.37 1770.46 319.12C1764.23 315.86 1772.6 314.36 1775.52 314.36C1778.44 314.36 1768.7 307.6 1763.25 305.09C1757.8 302.59 1768.51 304.34 1771.82 302.84C1775.13 301.34 1753.12 289.94 1754.88 289.44C1756.64 288.94 1766.37 295.83 1767.73 290.82C1769.09 285.81 1751.37 278.42 1754.29 276.92C1757.21 275.42 1774.35 278.3 1772.01 274.79C1769.67 271.28 1750.29 266.65 1752.05 265.9C1753.8 265.15 1765.39 266.53 1764.42 264.27C1763.45 262.02 1746.89 254.5 1750.2 254.5C1753.51 254.5 1761.98 255.75 1759.26 253.12C1757.79 251.7 1752.62 250.5 1749.74 242.92H1749.73Z" fill="#282133"/>
<path d="M1877.8 222.13C1876.44 218.55 1873.75 218.16 1872.17 221.39C1870.33 225.15 1868.37 228.12 1866.58 228.7C1863.46 229.7 1863.46 230.33 1860.45 232.83C1857.91 234.94 1862.47 234.63 1864.93 233.83C1867.2 233.1 1871.84 232.45 1868.83 235.08C1866.33 237.26 1854.61 240.49 1855 242.72C1855.39 244.94 1874.76 240.97 1870.87 242.72C1862.03 246.7 1852.37 252.61 1852.56 254.37C1852.75 256.13 1865.7 252.99 1866 253.74C1866.3 254.49 1855.09 260 1853.15 262.26C1851.2 264.51 1864.45 265.64 1865.03 266.89C1865.61 268.14 1844.29 272.9 1844.99 275.23C1845.69 277.56 1867.76 276.26 1864.84 279.03C1861.92 281.79 1841.27 289.81 1843.03 290.31C1844.78 290.81 1851.21 292.31 1848.87 294.82C1846.53 297.32 1841.65 306.09 1842.92 306.84C1844.19 307.59 1898.53 317.11 1898.53 317.11C1898.53 317.11 1900.28 304.59 1904.96 305.84C1909.63 307.09 1904.77 301.58 1898.53 298.33C1892.3 295.07 1900.67 293.57 1903.59 293.57C1906.51 293.57 1896.77 286.81 1891.32 284.3C1885.87 281.8 1896.58 283.55 1899.89 282.05C1903.2 280.55 1881.19 269.15 1882.95 268.65C1884.7 268.15 1894.44 275.04 1895.8 270.03C1897.16 265.02 1879.44 257.63 1882.36 256.13C1885.28 254.63 1902.42 257.51 1900.08 254C1897.74 250.49 1878.36 245.86 1880.12 245.11C1881.87 244.36 1893.46 245.74 1892.49 243.48C1891.52 241.23 1874.96 233.71 1878.27 233.71C1881.58 233.71 1890.05 234.96 1887.33 232.33C1885.86 230.91 1880.69 229.71 1877.81 222.13H1877.8Z" fill="#282133"/>
<path d="M407.83 408.76L388.23 429.1L435.51 430.42L412.4 408.84C411.59 408.08 408.53 408.03 407.82 408.76H407.83Z" fill="#282133"/>
<path d="M355 416.15L321.85 431.57L406.13 427L363.15 415.68C361.64 415.28 356.19 415.6 355 416.16V416.15Z" fill="#282133"/>
<path d="M258.22 424.85L224.56 439.11L308.94 437.45L266.38 424.65C264.89 424.2 259.43 424.33 258.22 424.84V424.85Z" fill="#282133"/>
<path d="M541.51 386.05L518.47 453L571.02 454.42L546.59 386.03C545.73 383.63 542.33 383.65 541.5 386.06L541.51 386.05Z" fill="#282133"/>
<path d="M653.85 354.04L630.81 420.99L683.36 422.41L658.93 354.02C658.07 351.62 654.67 351.64 653.84 354.05L653.85 354.04Z" fill="#282133"/>
<path d="M687.55 369.08L656.68 458.79L727.11 460.69L694.37 369.04C693.22 365.82 688.66 365.85 687.55 369.08Z" fill="#282133"/>
<path d="M790.87 297.55L755.96 398.98L835.59 401.13L798.58 297.5C797.28 293.86 792.13 293.89 790.87 297.54V297.55Z" fill="#282133"/>
<path d="M827.44 346.63L799.05 429.13L863.81 430.88L833.71 346.6C832.65 343.64 828.46 343.67 827.44 346.64V346.63Z" fill="#282133"/>
<path d="M1355.92 298.17L1336.66 354.13L1380.59 355.32L1360.17 298.15C1359.45 296.14 1356.61 296.16 1355.92 298.17Z" fill="#282133"/>
<path d="M1380.92 287.81L1358.64 352.55L1409.47 353.92L1385.85 287.78C1385.02 285.46 1381.73 285.48 1380.93 287.81H1380.92Z" fill="#282133"/>
<path d="M1449 265.81L1426.72 330.55L1477.55 331.92L1453.93 265.78C1453.1 263.46 1449.81 263.48 1449.01 265.81H1449Z" fill="#282133"/>
<path d="M1471.62 276.24L1449.34 340.98L1500.17 342.35L1476.55 276.21C1475.72 273.89 1472.43 273.91 1471.63 276.24H1471.62Z" fill="#282133"/>
<path d="M448.09 380.04L413.45 452.76L472.67 461.11L453.84 380.66C453.18 377.84 449.33 377.42 448.08 380.04H448.09Z" fill="#282133"/>
<path d="M956.55 287.81L927.61 383.41L989.28 384.53L961.73 287.85C960.99 285.26 957.33 285.23 956.55 287.81Z" fill="#282133"/>
<path d="M925.19 309.21L901.29 386.88L962.98 387.49L931.59 308.95C930.4 305.98 926.14 306.15 925.2 309.21H925.19Z" fill="#282133"/>
<path d="M992.33 315.51L975.2 375.93L1022.29 380.53L996.57 315.3C995.78 313.3 992.91 313.45 992.33 315.51Z" fill="#282133"/>
<path d="M1028.72 297.55L1003.15 371.55L1061.66 374.88L1034.33 297.53C1033.39 294.88 1029.64 294.89 1028.72 297.55Z" fill="#282133"/>
<path d="M1067.63 311.03L1045.38 362.99L1102.17 372.82L1071.33 310.92C1070.55 309.36 1068.31 309.43 1067.63 311.03Z" fill="#282133"/>
<path d="M1177.16 276.26L1155.06 346.33C1154.51 348.07 1155.69 349.88 1157.5 350.09L1207.26 355.79C1209.4 356.04 1211.06 353.94 1210.32 351.91L1182.66 276.15C1181.71 273.55 1178 273.63 1177.17 276.27L1177.16 276.26Z" fill="#282133"/>
<path d="M1212.29 289.33L1188.6 342.41L1247.22 342.37L1217.42 289.1C1216.27 287.04 1213.25 287.17 1212.29 289.33Z" fill="#282133"/>
<path d="M1117.68 283.52C1116.76 281.81 1114.35 281.73 1113.24 283.32C1110.46 287.31 1107.17 290.92 1103.99 291.6C1099.66 292.54 1099.7 293 1095.61 295.05C1092.17 296.77 1098.6 296.26 1102.02 295.51C1105.17 294.82 1111.7 294.05 1107.62 296.19C1104.24 297.97 1087.9 301.1 1088.62 302.73C1089.33 304.36 1116.44 300.19 1111.07 301.73C1098.86 305.24 1085.62 310.23 1086.02 311.52C1086.42 312.81 1104.51 309.67 1104.98 310.21C1105.45 310.75 1090.01 315.54 1087.42 317.34C1084.83 319.13 1103.64 319.14 1104.56 320.03C1105.48 320.92 1075.66 325.79 1076.82 327.48C1077.98 329.17 1109.1 326.82 1105.16 329.05C1101.23 331.28 1072.61 338.53 1075.12 338.79C1077.63 339.05 1086.83 339.76 1083.71 341.77C1080.59 343.78 1074.31 350.59 1076.17 351.06C1077.84 351.49 1140.85 354.49 1153.41 355.09C1154.6 355.15 1155.7 354.41 1156.06 353.27C1156.92 350.56 1159.1 345.97 1163.85 346.42C1170.55 347.06 1163.27 343.27 1154.22 341.25C1145.17 339.22 1156.91 337.58 1161.04 337.4C1165.17 337.22 1150.91 332.81 1143.02 331.29C1135.13 329.77 1150.4 330.4 1154.98 329.08C1159.55 327.76 1127.6 320.68 1130.05 320.2C1132.49 319.72 1146.76 324.22 1148.33 320.42C1149.9 316.62 1124.29 312.25 1128.32 310.95C1132.35 309.65 1156.79 310.71 1153.23 308.26C1149.67 305.8 1121.93 303.58 1124.35 302.91C1126.77 302.24 1143.26 302.54 1141.72 300.93C1140.18 299.32 1116.22 294.78 1120.91 294.57C1125.6 294.36 1137.67 294.76 1133.62 292.98C1131.14 291.89 1121.93 291.31 1117.71 283.5L1117.68 283.52Z" fill="#282133"/>
<path d="M1251.06 268.1C1250.53 266.45 1248.31 266.2 1247.44 267.7C1245.4 271.2 1243.14 274.19 1241.14 274.69C1238.2 275.41 1238.2 275.88 1235.33 277.72C1232.92 279.27 1237.21 279.07 1239.52 278.49C1241.66 277.96 1246.03 277.51 1243.16 279.45C1240.79 281.06 1229.75 283.38 1230.09 285.04C1230.43 286.7 1248.66 283.86 1244.99 285.14C1236.65 288.05 1227.51 292.38 1227.67 293.68C1227.83 294.99 1240.02 292.74 1240.29 293.3C1240.56 293.86 1229.98 297.89 1228.13 299.55C1226.28 301.21 1238.7 302.14 1239.23 303.07C1239.76 304 1219.69 307.4 1220.32 309.14C1220.95 310.88 1241.68 310.06 1238.91 312.09C1236.14 314.13 1216.66 319.95 1218.3 320.34C1219.94 320.73 1225.96 321.88 1223.74 323.73C1221.52 325.58 1216.83 332.06 1218.02 332.63C1219.21 333.2 1270.12 340.62 1270.12 340.62C1270.12 340.62 1271.91 331.32 1276.28 332.28C1280.65 333.24 1276.14 329.11 1270.33 326.65C1264.52 324.19 1272.39 323.13 1275.14 323.14C1277.88 323.16 1268.82 318.07 1263.72 316.17C1258.63 314.27 1268.67 315.65 1271.79 314.55C1274.92 313.45 1254.38 304.84 1256.03 304.48C1257.68 304.12 1266.75 309.3 1268.08 305.59C1269.42 301.87 1252.86 296.27 1255.62 295.17C1258.38 294.07 1274.44 296.32 1272.28 293.7C1270.12 291.08 1251.98 287.51 1253.64 286.96C1255.29 286.41 1266.16 287.51 1265.27 285.83C1264.38 284.15 1248.92 278.45 1252.03 278.47C1255.14 278.49 1263.08 279.48 1260.55 277.5C1259.05 276.33 1253.37 275.33 1251.04 268.08L1251.06 268.1Z" fill="#282133"/>
<path d="M1287.82 260.34C1288.03 258.33 1290.66 257.71 1291.75 259.41C1294.67 263.95 1297.7 267.77 1299.93 268.28C1303.24 269.05 1303.35 269.68 1306.82 271.97C1309.74 273.9 1305.1 273.95 1302.49 273.34C1300.08 272.78 1295.3 272.49 1298.79 274.91C1301.69 276.92 1314.03 279.26 1314.03 281.54C1314.03 283.82 1293.85 281.33 1298.07 282.8C1307.65 286.13 1318.41 291.34 1318.52 293.13C1318.63 294.92 1305.06 292.78 1304.9 293.56C1304.74 294.34 1316.96 299.03 1319.32 301.15C1321.67 303.28 1308.55 305.46 1308.18 306.78C1307.81 308.1 1330.09 311.21 1329.79 313.63C1329.49 316.04 1307.07 316.48 1310.5 319.04C1313.92 321.6 1336.08 328.07 1334.41 328.72C1332.73 329.37 1326.53 331.39 1329.32 333.74C1332.11 336.09 1336.57 357.47 1335.42 358.33C1334.27 359.19 1283.27 360.21 1283.27 360.21C1283.27 360.21 1279.32 347.69 1274.84 349.32C1270.36 350.96 1274.29 345 1279.99 341.21C1285.69 337.42 1277 336.57 1274.07 336.8C1271.14 337.03 1279.74 329.42 1284.79 326.46C1289.84 323.5 1279.37 326.12 1275.78 324.86C1272.19 323.6 1292.33 310.34 1290.48 309.97C1288.63 309.6 1280.04 317.34 1277.79 312.38C1275.54 307.42 1292.07 298.55 1288.87 297.26C1285.67 295.97 1268.94 300.24 1270.67 296.51C1272.41 292.78 1291.08 286.56 1289.19 285.94C1287.3 285.32 1275.88 287.63 1276.47 285.27C1277.06 282.91 1292.39 274 1289.06 274.27C1285.73 274.53 1277.43 276.47 1279.71 273.59C1281.05 271.9 1286.82 270.13 1287.82 260.34Z" fill="#282133"/>
<path d="M1627.26 252.93L1605.68 325.76L1663.71 331.38L1633.42 252.69C1632.3 249.79 1628.15 249.96 1627.27 252.93H1627.26Z" fill="#282133"/>
<path d="M1662.45 302.41L1638.96 354.75L1697.58 354.83L1668.26 302.15C1666.96 299.81 1663.55 299.96 1662.46 302.4L1662.45 302.41Z" fill="#282133"/>
<path d="M1790.96 231.85L1769.38 304.68L1827.41 310.3L1797.12 231.61C1796 228.71 1791.85 228.88 1790.97 231.85H1790.96Z" fill="#282133"/>
<path d="M1826.15 258.78L1802.66 311.12L1861.28 311.2L1831.96 258.52C1830.66 256.18 1827.25 256.33 1826.16 258.77L1826.15 258.78Z" fill="#282133"/>
<path d="M1920.11 307.58V494.94H0.109985V453.29C0.109985 453.29 137.28 439.88 205.11 435.58C399.36 423.28 493.94 417.07 733.15 396.35C963.81 376.37 1236.1 319.02 1483.14 309.05C1668.12 301.58 1920.12 307.58 1920.12 307.58H1920.11Z" fill="#282133"/>
<path opacity="0.2" d="M1061.46 485.25C1230.12 485.25 1366.85 376.706 1366.85 242.81C1366.85 108.914 1230.12 0.370117 1061.46 0.370117C892.798 0.370117 756.07 108.914 756.07 242.81C756.07 376.706 892.798 485.25 1061.46 485.25Z" fill="url(#paint2_radial_4503_28018)"/>
<path opacity="0.2" d="M1061.46 472.92C1325.78 472.92 1540.05 392.806 1540.05 293.98C1540.05 195.154 1325.78 115.04 1061.46 115.04C797.142 115.04 582.87 195.154 582.87 293.98C582.87 392.806 797.142 472.92 1061.46 472.92Z" fill="url(#paint3_radial_4503_28018)"/>
<path opacity="0.5" d="M1216.67 378.15C1217.03 378.25 1216.27 378.88 1214.92 379.8C1214.92 379.5 1214.7 379.18 1214.28 378.84C1215.38 378.37 1216.27 378.03 1216.67 378.15Z" fill="#131821"/>
<path opacity="0.5" d="M1625.9 378.91C1626.26 379.01 1625.5 379.64 1624.15 380.56C1624.15 380.26 1623.93 379.94 1623.51 379.6C1624.61 379.13 1625.5 378.79 1625.9 378.91Z" fill="#1D1D2A"/>
<path d="M1920.11 390.16V494.99H0.109985V485.34C0.109985 485.34 80.11 481.58 128.13 481.4C169.16 481.25 250.24 478.34 286.3 476.26C328.72 473.81 439.2 463.79 488.09 460.69C525.05 458.34 540.77 460.71 579.85 458.61L589.01 432C589.63 430.2 592.16 430.19 592.8 431.97L601.89 457.42C604.61 457.27 607.33 457.12 610.06 456.98L622.57 420.6C623.32 418.42 626.4 418.4 627.18 420.58L639.61 455.37C659.6 454.27 679.52 453.17 699.18 452.08L708.9 423.82C709.46 422.21 711.74 422.19 712.31 423.8L721.96 450.8C722.66 450.76 723.36 450.72 724.06 450.68C724.96 449.19 725.88 447.85 726.56 447.1C728.68 444.8 722.85 443.42 721.26 442.96C719.67 442.5 738.39 435.14 741.04 432.6C743.69 430.06 723.68 431.26 723.05 429.11C722.41 426.97 741.75 422.6 741.22 421.45C740.69 420.3 728.68 419.27 730.45 417.19C732.21 415.12 742.37 410.06 742.1 409.37C741.83 408.68 730.09 411.56 729.92 409.95C729.74 408.34 738.5 402.91 746.52 399.25C750.04 397.64 732.48 401.29 732.12 399.25C731.77 397.21 742.39 394.23 744.66 392.23C747.4 389.82 743.19 390.41 741.13 391.08C738.9 391.81 734.77 392.1 737.07 390.16C739.81 387.86 739.81 387.28 742.63 386.36C744.26 385.84 746.04 383.1 747.7 379.65C749.14 376.68 751.58 377.04 752.81 380.33C755.42 387.29 760.11 388.4 761.44 389.7C763.91 392.12 756.23 390.97 753.23 390.97C750.23 390.97 765.24 397.87 766.12 399.94C767 402.01 756.5 400.74 754.91 401.43C753.32 402.12 770.89 406.38 773.01 409.6C775.13 412.82 759.59 410.18 756.94 411.56C754.29 412.94 770.36 419.73 769.12 424.33C767.89 428.93 759.06 422.6 757.47 423.06C755.88 423.52 775.83 433.99 772.83 435.37C769.83 436.75 760.12 435.14 765.06 437.44C767.48 438.57 770.84 440.64 773.32 442.45L791.68 389.09C792.52 386.66 795.95 386.64 796.81 389.06L816.92 445.35C837.05 444.17 856.39 443.02 874.67 441.91L891.87 393.75L897.05 379.27L900.54 369.49C902.03 365.3 907.97 365.34 909.42 369.54L913.27 380.73L914.94 385.61L916.29 389.52L919.34 398.4L922.4 407.29L925.7 398.04L931.3 382.37L937.26 365.69C938.3 362.79 942.41 362.81 943.41 365.72L949.71 384.04L953.91 396.22L953.98 396.43L957.39 406.36L966.02 431.43C968.83 430.94 971.65 430.44 974.48 429.93L983.57 404.47L983.82 403.77L986.67 395.79C987.49 393.5 990.74 393.52 991.53 395.82L993.93 402.78L994.61 404.77C997.09 401.4 1014.08 397.02 1012.52 396.3C1010.94 395.57 1000.48 396.91 1001.36 394.72C1001.79 393.67 1005.49 391.43 1008.87 389.39C1012.49 387.21 1015.74 385.26 1014.19 385.26C1011.2 385.26 1003.56 386.47 1006.02 383.93C1007.34 382.55 1012.01 381.39 1014.61 374.04C1015.83 370.57 1018.26 370.2 1019.69 373.33C1020.62 375.38 1021.58 377.18 1022.54 378.48C1023.28 379.48 1024.02 380.17 1024.73 380.41C1027.54 381.38 1027.54 381.99 1030.27 384.41C1032.56 386.45 1028.44 386.15 1026.23 385.38C1024.18 384.67 1019.99 384.05 1022.71 386.59C1024.18 387.97 1029.17 389.78 1032.37 391.47C1032.89 391.74 1033.36 392.01 1033.76 392.27L1033.99 391.61L1037.11 382.89L1041.59 370.34C1042.75 367.11 1047.34 367.13 1048.46 370.38L1056.43 393.56L1060.44 405.22L1063.04 412.77C1065.13 412.37 1067.22 411.97 1069.32 411.57C1076.34 410.23 1083.38 408.92 1090.44 407.66C1093.89 407.03 1097.34 406.42 1100.79 405.83C1105.77 404.96 1110.76 404.12 1115.75 403.31C1121.57 402.36 1127.4 401.46 1133.22 400.6C1135.6 398.82 1138.58 396.9 1140.79 395.81C1143.12 394.67 1142.18 394.44 1140.23 394.36H1140.16C1137.99 394.28 1134.62 394.38 1133.06 393.63C1131.39 392.82 1136.83 389.02 1141.69 385.75C1145.55 383.15 1149.05 380.87 1148.35 380.65C1147.4 380.36 1143.85 382.65 1140.9 383.47C1138.94 384.02 1137.24 383.92 1136.75 381.98C1136.41 380.65 1137.37 379.14 1138.89 377.63C1142.9 373.63 1150.78 369.58 1148.87 368.52C1147.13 367.56 1139.81 368.44 1135.64 368.18C1133.48 368.05 1132.16 367.61 1132.88 366.46C1133.17 365.99 1133.76 365.5 1134.54 365C1139.45 361.89 1152.25 358.47 1150.89 357.85C1149.31 357.12 1138.86 358.45 1139.74 356.27C1140.61 354.09 1155.55 346.81 1152.56 346.81C1149.57 346.81 1141.93 348.02 1144.39 345.47C1145.72 344.1 1150.39 342.94 1152.98 335.59C1154.21 332.12 1156.63 331.75 1158.06 334.88C1159.72 338.52 1161.49 341.4 1163.11 341.96C1165.92 342.93 1165.92 343.53 1168.64 345.96C1170.93 348 1166.82 347.7 1164.6 346.93C1162.55 346.22 1158.36 345.59 1161.09 348.14C1162.84 349.78 1169.61 352.04 1172.38 353.98C1173.17 354.53 1173.64 355.06 1173.56 355.54C1173.53 355.74 1173.36 355.88 1173.07 355.98C1170.22 357.05 1156.05 353.99 1159.24 355.54C1167.21 359.4 1175.93 365.12 1175.76 366.82C1175.58 368.52 1163.9 365.49 1163.63 366.22C1163.37 366.94 1173.47 372.28 1175.23 374.46C1176.99 376.65 1165.04 377.74 1164.51 378.95C1163.98 380.16 1183.23 384.77 1182.59 387.03C1181.96 389.29 1162.05 388.03 1164.69 390.71C1165.28 391.31 1166.69 392.17 1168.49 393.15C1169.91 393.92 1171.6 394.77 1173.31 395.62C1177.65 395.19 1181.98 394.8 1186.31 394.45C1192.1 393.98 1197.87 393.6 1203.63 393.3C1209.23 393.01 1214.8 392.8 1220.36 392.69L1221.41 389.74L1235.24 351.02C1236.28 348.12 1240.39 348.14 1241.39 351.06L1252.58 383.56L1253.79 387.07L1255.19 391.13L1256.74 386.8L1259.93 377.87L1270.88 347.19L1276.87 330.42C1278.37 326.23 1284.3 326.26 1285.75 330.47L1290.14 343.22L1303.55 382.22L1307.32 393.16L1311.54 381.36L1311.73 380.81L1319.51 359.04C1320.67 355.8 1325.26 355.83 1326.37 359.08L1330.3 370.49L1333.2 378.93L1337.31 390.87L1338.68 394.84C1342.54 394.98 1346.41 395.13 1350.29 395.29L1352.01 390.47L1357.16 376.06L1364.05 356.77L1364.79 354.7C1365.34 353.15 1366.67 352.36 1368.04 352.3C1369.42 352.23 1370.83 352.92 1371.5 354.37C1371.56 354.49 1371.61 354.61 1371.65 354.74L1373.2 359.25L1378.07 373.4L1385.28 394.35L1386.11 396.76C1396.81 397.21 1407.64 397.66 1418.65 398.11C1422.39 396.07 1429.13 393.31 1433.66 392.04C1441.12 389.95 1426.72 390.72 1422.43 388.81C1421.8 388.53 1421.92 388.08 1422.56 387.52C1422.76 387.34 1423.01 387.15 1423.3 386.96H1423.31C1425.4 385.58 1429.73 383.71 1434.06 381.93C1440.6 379.25 1447.16 376.76 1446.04 376.42C1444.44 375.93 1437.4 378.83 1432.8 378.8C1430.8 378.8 1429.26 378.22 1428.83 376.58C1428.58 375.64 1429.11 374.68 1430.14 373.73C1434.88 369.32 1450.17 365.06 1448 363.42C1447.95 363.38 1447.88 363.34 1447.81 363.3C1445.67 362.24 1437.27 362.2 1431.06 361.74C1426.37 361.38 1422.93 360.78 1424.39 359.29C1424.57 359.11 1424.81 358.93 1425.1 358.76C1430.43 355.54 1453.82 352.85 1451.66 351.93C1449.39 350.97 1433.86 351.26 1435.33 348.98C1436.26 347.56 1445.45 344.58 1451.13 342.48C1454.53 341.21 1456.68 340.25 1455.03 340.13C1453.81 340.04 1452.07 340.01 1450.26 339.96C1445.51 339.83 1440.31 339.58 1443.08 337.77C1444.08 337.12 1446.24 336.61 1448.69 335.38C1451.31 334.08 1454.27 331.96 1456.56 327.99C1458.46 324.7 1461.6 324.28 1463.55 326.88C1463.75 327.15 1463.94 327.45 1464.11 327.78C1465.28 330.04 1466.52 332.05 1467.79 333.54C1468.33 334.18 1468.87 334.73 1469.42 335.14C1469.94 335.56 1470.46 335.86 1470.97 336.03C1475.04 337.39 1474.99 338.05 1478.81 340.99C1482.03 343.46 1475.98 342.68 1472.77 341.6C1469.81 340.6 1463.68 339.45 1467.49 342.52C1470.65 345.07 1485.98 349.64 1485.29 351.94C1484.59 354.24 1459.12 348.12 1464.16 350.36C1469.62 352.78 1475.3 355.68 1479.7 358.25C1484.53 361.06 1487.82 363.48 1487.61 364.44C1487.21 366.26 1470.23 361.67 1469.77 362.44C1469.32 363.2 1483.79 370.11 1486.21 372.68C1488.62 375.25 1470.91 375.11 1470.03 376.37C1469.73 376.8 1472.78 377.9 1476.88 379.27C1480.09 380.34 1483.95 381.58 1487.36 382.77L1489.25 377.53L1497.33 355.17L1501.73 342.97L1502.58 340.62L1505.91 331.4L1507.28 327.6L1509.68 320.97L1511.09 317.06C1511.16 316.87 1511.24 316.69 1511.32 316.52C1512.07 315.05 1513.49 314.29 1514.94 314.23C1516.71 314.15 1518.52 315.12 1519.21 317.14L1521.07 322.59L1526.03 337.19L1526.45 338.43L1530.05 349L1539.06 375.49L1547.8 401.17C1551.38 398.21 1557.89 394.03 1562.31 391.98C1569.59 388.59 1555.29 390.96 1550.87 388.93C1547.17 387.23 1567.11 376.18 1572.37 372.2C1573.41 371.43 1573.87 370.92 1573.49 370.81C1572.68 370.58 1570.6 371.54 1568.14 372.61C1563.93 374.47 1558.62 376.66 1556.78 373.74C1556.59 373.44 1556.44 373.09 1556.33 372.68C1555.55 369.78 1559.42 366.3 1563.8 363.11C1569.69 358.82 1576.5 355.04 1574.27 353.88C1573.16 353.3 1570.49 353.2 1567.32 353.25C1559.41 353.37 1548.38 354.38 1550.61 351C1552.45 348.2 1562.21 344.88 1569.42 342.41C1570.12 342.17 1570.8 341.94 1571.44 341.72C1573.3 341.08 1574.88 340.51 1575.95 340.05C1577.15 339.54 1577.69 339.17 1577.26 338.98C1576.9 338.82 1576.24 338.73 1575.37 338.69C1574.57 338.64 1573.6 338.63 1572.54 338.63C1567.26 338.63 1559.83 338.93 1560.75 336.78C1561.36 335.35 1566.58 332.33 1571.47 329.55C1573.45 328.42 1575.37 327.33 1576.91 326.4C1579.67 324.74 1581.22 323.57 1579.72 323.57C1579.2 323.57 1578.58 323.59 1577.9 323.63C1575.14 323.78 1571.39 324.12 1569.07 323.91C1567.13 323.72 1566.18 323.14 1567.64 321.71C1567.75 321.61 1567.87 321.5 1568 321.4C1570.34 319.59 1576.71 317.62 1580.34 307.91C1581.44 304.96 1583.22 303.61 1584.91 304.01C1585.99 304.26 1587.04 305.21 1587.86 306.92C1590.31 312 1592.93 316.02 1595.32 316.8C1599.48 318.15 1599.48 319 1603.51 322.39C1606.9 325.24 1600.81 324.81 1597.53 323.74C1594.5 322.75 1588.3 321.88 1592.33 325.43C1594.86 327.66 1604.4 330.71 1608.69 333.36C1610.08 334.21 1610.92 335.03 1610.79 335.76C1610.68 336.4 1609.39 336.66 1607.5 336.69C1600.59 336.82 1585.53 333.9 1589.6 335.76C1592.02 336.87 1594.49 338.08 1596.88 339.34C1599.74 340.84 1602.5 342.4 1604.93 343.89C1610.36 347.22 1614.18 350.21 1614.04 351.51C1613.88 352.95 1607.45 351.95 1602.33 351.18C1599.02 350.67 1596.26 350.26 1596.1 350.66C1595.94 351.07 1598.24 352.5 1601.22 354.28C1605.69 356.94 1611.7 360.35 1613.26 362.18C1613.41 362.36 1613.49 362.53 1613.51 362.7C1616.15 361.39 1620.03 360.07 1623.18 358.99C1626.53 357.84 1629.06 356.97 1628.42 356.69C1627.67 356.36 1624.89 356.48 1622.31 356.46C1619.52 356.45 1616.96 356.27 1617.41 355.22C1617.66 354.62 1619.11 353.62 1620.95 352.5C1625.4 349.8 1632.15 346.41 1630.06 346.41C1627.12 346.41 1619.58 347.54 1622 345.17C1623.28 343.92 1627.69 342.86 1630.28 336.47C1630.35 336.31 1630.42 336.14 1630.48 335.97C1631.69 332.74 1634.08 332.39 1635.49 335.31C1635.61 335.56 1635.73 335.81 1635.86 336.05C1637.39 339.08 1638.99 341.42 1640.47 341.9C1643.24 342.8 1643.24 343.36 1645.93 345.62C1648.19 347.52 1644.13 347.24 1641.94 346.53C1639.92 345.87 1635.79 345.28 1638.47 347.66C1640.7 349.62 1651.13 352.54 1650.78 354.54C1650.43 356.55 1633.19 352.96 1636.65 354.54C1642.06 357.01 1647.82 360.31 1650.83 362.64C1650.9 362.69 1650.97 362.75 1651.04 362.8C1652.28 363.79 1653 364.58 1652.95 365.05C1652.9 365.55 1651.7 365.61 1650.08 365.48C1646.6 365.19 1641.17 364.02 1640.99 364.48C1640.72 365.16 1650.69 370.13 1652.43 372.16C1654.16 374.19 1642.37 375.21 1641.85 376.34C1641.49 377.13 1650.57 379.44 1655.92 381.49L1661.7 365.31L1662.76 362.32L1672.89 333.96C1672.93 333.85 1672.98 333.74 1673.04 333.63C1674.14 331.3 1677.41 331.19 1678.71 333.31C1678.85 333.52 1678.95 333.75 1679.04 334L1688.55 361.62L1689.56 364.55L1692.83 374.06L1696.29 364.37L1701.16 350.72L1707.92 331.8L1708.95 328.94L1712.93 317.79L1713.79 315.38L1718.96 300.9L1720.06 297.82L1721.59 293.54C1723.08 289.35 1729.02 289.39 1730.47 293.59L1743.09 330.26L1751 353.27L1752.04 356.28L1753.27 352.85L1758.98 336.85L1760.81 331.74L1761.59 329.56L1762.76 326.28L1764.23 322.17C1764.81 320.55 1766.25 319.74 1767.68 319.75C1768.71 319.75 1769.73 320.19 1770.43 321.03C1770.71 321.36 1770.93 321.75 1771.09 322.21L1772.84 327.29L1773.48 329.14L1778.69 344.3L1789.17 374.75L1799.81 344.96L1801.54 340.1L1805.83 328.12L1808.62 320.29L1809.5 317.83C1810.66 314.59 1815.25 314.62 1816.37 317.87L1819.76 327.72L1825.45 344.26L1836.51 376.39L1846.29 349L1848.21 343.65L1850.09 338.37C1851.04 335.71 1854.8 335.73 1855.72 338.4L1857.44 343.4L1859.25 348.65L1869 376.98L1879.31 348.11L1885.73 330.13L1887.15 326.17C1887.49 325.21 1888.18 324.61 1888.98 324.34C1890.39 323.86 1892.1 324.44 1892.72 326.06C1892.75 326.1 1892.76 326.15 1892.78 326.19L1893.88 329.38L1914.89 390.43C1916.63 390.35 1918.37 390.26 1920.11 390.17V390.16Z" fill="#1D1D2A"/>
<path d="M306.53 477.02C324.99 475.28 343.08 473.67 360.38 472.26Z" fill="#1D1D2A"/>
<defs>
<linearGradient id="paint0_linear_4503_28018" x1="1058.46" y1="-20.04" x2="1058.46" y2="411.97" gradientUnits="userSpaceOnUse">
<stop stop-color="#13151F"/>
<stop offset="0.29" stop-color="#1D1C2F"/>
<stop offset="0.39" stop-color="#212036"/>
<stop offset="0.52" stop-color="#33283E"/>
<stop offset="0.79" stop-color="#623D53"/>
<stop offset="1" stop-color="#8C5166"/>
</linearGradient>
<radialGradient id="paint1_radial_4503_28018" cx="0" cy="0" r="1" gradientUnits="userSpaceOnUse" gradientTransform="translate(1055.93 280.337) rotate(-11.05) scale(143.837 122.861)">
<stop stop-color="#BA7978"/>
<stop offset="0.32" stop-color="#C98B7F" stop-opacity="0.7"/>
<stop offset="1" stop-color="#EEB592" stop-opacity="0"/>
</radialGradient>
<radialGradient id="paint2_radial_4503_28018" cx="0" cy="0" r="1" gradientUnits="userSpaceOnUse" gradientTransform="translate(1057.88 242.965) scale(304.715 242.063)">
<stop stop-color="#BA7978"/>
<stop offset="0.06" stop-color="#BF7F7A" stop-opacity="0.89"/>
<stop offset="0.23" stop-color="#CD8F81" stop-opacity="0.62"/>
<stop offset="0.4" stop-color="#D99D87" stop-opacity="0.4"/>
<stop offset="0.57" stop-color="#E2A78C" stop-opacity="0.22"/>
<stop offset="0.72" stop-color="#E8AE8F" stop-opacity="0.1"/>
<stop offset="0.87" stop-color="#ECB391" stop-opacity="0.03"/>
<stop offset="1" stop-color="#EEB592" stop-opacity="0"/>
</radialGradient>
<radialGradient id="paint3_radial_4503_28018" cx="0" cy="0" r="1" gradientUnits="userSpaceOnUse" gradientTransform="translate(1065.13 295.158) scale(478.95 178.808)">
<stop stop-color="#BA7978"/>
<stop offset="0.06" stop-color="#BF7F7A" stop-opacity="0.89"/>
<stop offset="0.23" stop-color="#CD8F81" stop-opacity="0.62"/>
<stop offset="0.4" stop-color="#D99D87" stop-opacity="0.4"/>
<stop offset="0.57" stop-color="#E2A78C" stop-opacity="0.22"/>
<stop offset="0.72" stop-color="#E8AE8F" stop-opacity="0.1"/>
<stop offset="0.87" stop-color="#ECB391" stop-opacity="0.03"/>
<stop offset="1" stop-color="#EEB592" stop-opacity="0"/>
</radialGradient>
</defs>
</svg>
