<svg width="1440" height="452" viewBox="0 0 1440 452" fill="none" xmlns="http://www.w3.org/2000/svg">
<path opacity="0.6" d="M1440 0.689941C1424.78 0.699941 1408.29 0.999939 1392.19 0.999939C1339.51 0.999939 1186.45 14.9999 1037.83 53.4899C968.8 71.3699 1018.28 77.3599 1094.65 79.5499C1066.61 80.1399 1039.06 81.5999 1014 84.3799C972.31 88.9999 932.39 92.6999 897.27 95.6199C830.74 101.15 781.47 103.85 770.14 104.62C779.23 103.07 813.74 94.58 849.14 85.14C901.88 71.09 956.61 54.9699 932.21 56.6599C889.66 59.5999 797.55 59.9099 741.21 56.6599C684.87 53.3999 601.32 62.9999 459.42 59.8499C317.51 56.6899 328.98 55.2599 419.14 61.5799C485.01 66.1999 546.16 87.97 551.89 95.17C553.4 97.05 551.08 97.9299 544.06 97.2399C541.2 96.9599 537.56 96.4199 533.08 95.5799C497.66 88.9499 415.46 92.7999 333.96 104.34C204.36 118.18 282.4 145.73 333.96 141.69C372.1 139.6 411.14 137.71 443.74 137.43C463.33 137.26 480.59 137.66 493.95 138.95C583.55 147.59 627.51 167.87 779.85 194.08C781.67 194.39 783.51 194.7 785.36 195.01C785.98 195.12 786.6 195.23 787.23 195.33C790.61 195.91 794.05 196.48 797.54 197.06C805.08 198.31 812.88 199.58 820.94 200.85C920.48 216.59 890.01 214.18 809.43 213C799.54 212.85 788.89 212.72 777.64 212.65C771.06 212.61 764.28 212.59 757.32 212.59H755.45C739.94 212.61 723.57 212.75 706.67 213.1C704.42 213.15 702.16 213.2 699.9 213.26C650.04 214.46 595.91 217.52 545.57 224.41C543.03 224.75 540.5 225.11 537.98 225.48C537.76 225.51 537.56 225.54 537.34 225.57C451.98 238.08 463.9 242.19 515.09 241.83C516.87 241.82 518.7 241.8 520.57 241.77C524.89 241.72 529.46 241.64 534.24 241.53C539.03 241.43 544.03 241.29 549.22 241.13C562.52 240.73 577.02 240.16 592.2 239.48C595.7 239.32 599.25 239.15 602.82 238.98C620.39 238.14 638.69 237.15 656.95 236.06C665.34 235.56 673.72 235.03 682.03 234.5C686.36 234.22 690.66 233.93 694.94 233.65C700.72 233.26 706.44 232.86 712.08 232.46C722.3 231.73 732.25 230.99 741.77 230.25C749.78 229.62 757.49 228.98 764.8 228.36C770.22 227.88 775.43 227.42 780.38 226.95C784.62 226.56 788.68 226.17 792.52 225.77C796.63 226.91 802.62 228.49 809.92 230.25C809.94 230.26 809.97 230.27 809.99 230.27C818.09 232.22 827.79 234.37 838.35 236.33C842.06 237.03 845.88 237.7 849.76 238.32C853.15 238.88 856.6 239.39 860.07 239.88C865.4 240.6 870.81 241.24 876.21 241.74C887.36 242.77 898.5 243.21 908.93 242.7C909.53 242.68 910.13 242.65 910.72 242.61C914.76 242.37 918.81 242.19 922.95 242.05C927.56 241.9 932.28 241.81 937.22 241.77C939.32 241.75 941.46 241.74 943.65 241.74C952.07 241.73 961.19 241.85 971.52 242.05C972.58 242.07 973.65 242.09 974.73 242.11C981.96 242.26 989.77 242.44 998.32 242.64C1003.69 242.77 1009.34 242.9 1015.33 243.04C1026.8 243.3 1039.48 243.59 1053.63 243.87C1056.32 243.92 1059.05 243.98 1061.85 244.03C1070.91 244.2 1080.55 244.36 1090.82 244.51C1104.27 244.72 1118.82 244.91 1134.61 245.07C1141.73 245.14 1149.1 245.2 1156.73 245.26C1181.5 245.45 1209.04 245.57 1239.81 245.57H1250.28C1440 245.4 1337.64 237.44 1079.64 208.56C1027.3 202.7 968.55 195.99 904.53 188.3C524 142.58 891.47 185.33 1021.6 188.3C1036.09 188.63 1051.19 188.83 1066.66 188.91C1190.13 189.54 1337.85 182.4 1397.95 171.39C1465.59 159 1009.21 138.88 999.13 130.99C989.05 123.1 1184.03 135.78 1419.54 115.54C1426.68 114.93 1433.48 114.32 1439.96 113.74V69.3199C1392.87 67.2499 1336.22 67.69 1329.65 67.95C1336.19 66.99 1392.93 53.2599 1439.96 39.1199V0.689941H1440Z" fill="url(#paint0_linear_4503_28019)"/>
<path opacity="0.2" d="M598.01 430.33C766.672 430.33 903.4 343.24 903.4 235.81C903.4 128.38 766.672 41.29 598.01 41.29C429.348 41.29 292.62 128.38 292.62 235.81C292.62 343.24 429.348 430.33 598.01 430.33Z" fill="url(#paint1_radial_4503_28019)"/>
<path opacity="0.6" d="M614.832 387.339C692.577 372.156 745.036 305.739 732.001 238.991C718.966 172.244 645.374 130.442 567.628 145.625C489.883 160.808 437.424 227.225 450.459 293.973C463.494 360.72 537.086 402.522 614.832 387.339Z" fill="url(#paint2_radial_4503_28019)"/>
<path d="M655.91 169.38C640.55 166.08 624.63 164.66 608.5 165.32C608.38 165.71 608.26 166.12 608.14 166.54C607.39 169.14 606.65 172.16 606.06 174.94C605.86 175.89 605.68 176.82 605.52 177.69C588.46 178.75 572.11 182.14 556.49 187.85C554.11 184.66 550.78 180.72 548.07 177.84C533.15 183.62 519.37 191.21 506.97 200.28C504.56 206.33 502.5 212.29 500.76 218.17C494.64 238.9 492.59 258.57 493.74 277.41C494.66 292.62 497.67 307.29 502.29 321.54C502.68 322.73 503.07 323.92 503.48 325.11C509.18 327.56 514.76 329.67 520.23 331.47C521.95 332.04 523.65 332.57 525.35 333.08C538.83 337.1 551.66 339.3 564.07 340.34C567.07 333.71 569.51 326.82 571.33 319.71C564.38 318.73 557.58 317.14 551 315.03C552.28 313.63 553.51 312.19 554.68 310.72C593.72 319.11 632.06 311.17 663.16 288.24C664.91 289.1 666.68 289.92 668.46 290.69C663.45 295.22 658 299.35 652.16 302.98C657.05 308.68 662.38 313.97 668.14 318.79C684.59 309.87 700.69 298.12 716.09 281.06C709.8 235.27 688.42 198.86 655.89 169.39L655.91 169.38ZM568.48 286.65C557.89 288.85 546.95 281.24 544.2 269.77C541.45 258.31 547.7 247.12 558.48 244.89C569.26 242.66 580.2 250.27 582.76 261.78C585.52 273.24 579.26 284.41 568.48 286.65ZM639.72 271.89C629.13 274.09 618.19 266.48 615.44 255.01C612.7 243.55 618.94 232.36 629.72 230.13C640.5 227.89 651.44 235.51 654 247.02C656.75 258.48 650.5 269.65 639.72 271.89Z" fill="#FFF3F3"/>
<path d="M736.54 289.59C735.58 286.86 733.67 286.57 732.55 289.03C731.25 291.89 729.85 294.16 728.58 294.59C726.37 295.35 726.37 295.83 724.23 297.74C722.43 299.35 725.66 299.11 727.41 298.5C729.02 297.94 732.31 297.45 730.17 299.45C728.39 301.11 720.09 303.57 720.36 305.27C720.63 306.97 734.38 303.93 731.62 305.27C725.35 308.3 718.5 312.8 718.63 314.14C718.77 315.48 727.95 313.09 728.16 313.66C728.37 314.23 720.42 318.43 719.04 320.14C717.66 321.85 727.05 322.72 727.47 323.67C727.89 324.62 712.76 328.24 713.25 330.02C713.75 331.8 729.4 330.81 727.33 332.91C725.26 335.01 710.61 341.12 711.86 341.5C713.11 341.88 717.66 343.03 716 344.93C714.34 346.84 710.88 353.51 711.78 354.09C712.68 354.67 751.23 361.91 751.23 361.91C751.23 361.91 752.47 352.37 755.79 353.33C759.11 354.28 755.65 350.09 751.23 347.61C746.81 345.13 752.75 343.99 754.82 343.99C756.89 343.99 749.98 338.84 746.12 336.93C742.25 335.02 749.85 336.36 752.2 335.21C754.55 334.07 738.94 325.39 740.18 325.01C741.42 324.63 748.33 329.87 749.3 326.06C750.27 322.25 737.7 316.62 739.77 315.47C741.84 314.33 754 316.52 752.34 313.85C750.68 311.18 736.94 307.65 738.18 307.08C739.42 306.51 747.64 307.56 746.95 305.84C746.26 304.12 734.52 298.4 736.87 298.4C739.22 298.4 745.23 299.35 743.29 297.35C742.25 296.27 738.58 295.35 736.54 289.58V289.59Z" fill="#282133"/>
<path d="M1403.65 214.69C1402.69 212.25 1400.78 211.99 1399.66 214.19C1398.36 216.75 1396.96 218.77 1395.69 219.16C1393.48 219.84 1393.48 220.27 1391.34 221.97C1389.54 223.4 1392.77 223.19 1394.52 222.65C1396.13 222.15 1399.42 221.71 1397.28 223.5C1395.5 224.98 1387.2 227.18 1387.47 228.7C1387.74 230.22 1401.49 227.51 1398.73 228.7C1392.46 231.41 1385.61 235.43 1385.74 236.62C1385.88 237.81 1395.06 235.68 1395.27 236.19C1395.48 236.7 1387.53 240.45 1386.15 241.98C1384.77 243.51 1394.16 244.28 1394.58 245.13C1394.99 245.98 1379.87 249.22 1380.36 250.8C1380.86 252.39 1396.51 251.5 1394.44 253.38C1392.37 255.26 1377.72 260.71 1378.97 261.05C1380.22 261.39 1384.77 262.41 1383.11 264.12C1381.45 265.83 1377.99 271.79 1378.89 272.3C1379.79 272.81 1418.34 279.28 1418.34 279.28C1418.34 279.28 1419.58 270.76 1422.9 271.61C1426.22 272.46 1422.76 268.71 1418.34 266.5C1413.92 264.29 1419.86 263.26 1421.93 263.26C1424 263.26 1417.09 258.66 1413.23 256.96C1409.36 255.26 1416.96 256.45 1419.31 255.43C1421.66 254.41 1406.05 246.66 1407.29 246.32C1408.53 245.98 1415.44 250.66 1416.41 247.26C1417.38 243.85 1404.81 238.83 1406.88 237.81C1408.95 236.79 1421.11 238.75 1419.45 236.36C1417.79 233.98 1404.05 230.82 1405.29 230.31C1406.53 229.8 1414.75 230.74 1414.06 229.2C1413.37 227.67 1401.63 222.56 1403.98 222.56C1406.33 222.56 1412.34 223.41 1410.4 221.62C1409.36 220.65 1405.69 219.84 1403.65 214.68V214.69Z" fill="#282133"/>
<path d="M1440 211.68V215.97C1439.18 216.04 1438.18 216.25 1437.48 216.47C1435.42 217.11 1431.61 217.36 1433.73 215.67C1436.26 213.66 1436.26 213.16 1438.86 212.36C1439.23 212.25 1439.61 212.01 1440 211.68Z" fill="#282133"/>
<path d="M1440 217.95V223.42C1436.05 223.85 1429.38 224.73 1429.18 223.59C1428.88 221.97 1436.98 219.67 1440 217.95Z" fill="#282133"/>
<path d="M1440 224.69V278.84C1430.37 277.17 1421.28 275.55 1419.41 275.07C1419.23 275.03 1419.12 274.99 1419.08 274.97C1418.37 274.57 1419.95 271.3 1421.67 268.58C1422.52 267.22 1423.4 266.01 1424.05 265.34C1424.47 264.91 1424.55 264.52 1424.4 264.17C1424.15 263.51 1423.13 262.99 1422.03 262.58C1420.93 262.17 1419.75 261.89 1419.17 261.73C1418.9 261.66 1419.27 261.37 1420.07 260.94C1423.59 259.09 1435.41 254.49 1437.4 252.69C1439.84 250.47 1421.4 251.51 1420.81 249.65C1420.22 247.78 1438.05 243.96 1437.56 242.96C1437.07 241.96 1426 241.06 1427.63 239.25C1429.26 237.44 1438.62 233.03 1438.37 232.43C1438.13 231.82 1427.31 234.33 1427.14 232.93C1427 231.67 1433.39 227.79 1440 224.69Z" fill="#282133"/>
<path d="M288.83 365.81L269.23 386.15L316.51 387.47L293.4 365.89C292.59 365.13 289.53 365.08 288.82 365.81H288.83Z" fill="#282133"/>
<path d="M236 373.2L202.85 388.62L287.13 384.05L244.15 372.73C242.64 372.33 237.19 372.65 236 373.21V373.2Z" fill="#282133"/>
<path d="M139.22 381.91L105.56 396.17L189.94 394.51L147.38 381.71C145.89 381.26 140.43 381.39 139.22 381.9V381.91Z" fill="#282133"/>
<path d="M422.51 343.1L399.47 410.05L452.02 411.47L427.59 343.08C426.73 340.68 423.33 340.7 422.5 343.11L422.51 343.1Z" fill="#282133"/>
<path d="M534.85 311.1L511.81 378.05L564.36 379.47L539.93 311.08C539.07 308.68 535.67 308.7 534.84 311.11L534.85 311.1Z" fill="#282133"/>
<path d="M505.55 299.14L474.68 388.85L545.11 390.75L512.37 299.1C511.22 295.88 506.66 295.91 505.55 299.14Z" fill="#282133"/>
<path d="M671.87 254.61L636.96 356.04L716.59 358.19L679.58 254.56C678.28 250.92 673.13 250.95 671.87 254.6V254.61Z" fill="#282133"/>
<path d="M708.44 303.69L680.05 386.19L744.81 387.94L714.71 303.66C713.65 300.7 709.46 300.73 708.44 303.7V303.69Z" fill="#282133"/>
<path d="M1236.92 255.23L1217.66 311.19L1261.59 312.38L1241.17 255.21C1240.45 253.2 1237.61 253.22 1236.92 255.23Z" fill="#282133"/>
<path d="M1261.92 244.86L1239.64 309.6L1290.47 310.97L1266.85 244.83C1266.02 242.51 1262.73 242.53 1261.93 244.86H1261.92Z" fill="#282133"/>
<path d="M1330 222.86L1307.72 287.6L1358.55 288.97L1334.93 222.83C1334.1 220.51 1330.81 220.53 1330.01 222.86H1330Z" fill="#282133"/>
<path d="M1352.62 233.3L1330.34 298.04L1381.17 299.41L1357.55 233.27C1356.72 230.95 1353.43 230.97 1352.63 233.3H1352.62Z" fill="#282133"/>
<path d="M329.09 337.09L294.45 409.81L353.67 418.16L334.84 337.71C334.18 334.89 330.33 334.47 329.08 337.09H329.09Z" fill="#282133"/>
<path d="M798.55 254.22L769.61 349.82L831.28 350.94L803.73 254.26C802.99 251.67 799.33 251.64 798.55 254.22Z" fill="#282133"/>
<path d="M767.19 275.62L743.29 353.29L804.98 353.9L773.59 275.36C772.4 272.39 768.14 272.56 767.2 275.62H767.19Z" fill="#282133"/>
<path d="M870.33 273.57L853.2 333.99L900.29 338.59L874.57 273.36C873.78 271.36 870.91 271.51 870.33 273.57Z" fill="#282133"/>
<path d="M630.33 298.57L613.2 358.99L660.29 363.59L634.57 298.36C633.78 296.36 630.91 296.51 630.33 298.57Z" fill="#282133"/>
<path d="M591.33 298.57L574.2 358.99L621.29 363.59L595.57 298.36C594.78 296.36 591.91 296.51 591.33 298.57Z" fill="#282133"/>
<path d="M909.72 254.6L884.15 328.6L942.66 331.93L915.33 254.58C914.39 251.93 910.64 251.94 909.72 254.6Z" fill="#282133"/>
<path d="M948.63 268.08L926.38 320.04L983.17 329.87L952.33 267.97C951.55 266.41 949.31 266.48 948.63 268.08Z" fill="#282133"/>
<path d="M1058.16 233.31L1036.06 303.38C1035.51 305.12 1036.69 306.93 1038.5 307.14L1088.26 312.84C1090.4 313.09 1092.06 310.99 1091.32 308.96L1063.66 233.2C1062.71 230.6 1059 230.68 1058.17 233.32L1058.16 233.31Z" fill="#282133"/>
<path d="M1093.29 246.38L1069.6 299.46L1128.22 299.42L1098.42 246.15C1097.27 244.09 1094.25 244.22 1093.29 246.38Z" fill="#282133"/>
<path d="M998.68 240.58C997.76 238.87 995.35 238.79 994.24 240.38C991.46 244.37 988.17 247.98 984.99 248.66C980.66 249.6 980.7 250.06 976.61 252.11C973.17 253.83 979.6 253.32 983.02 252.57C986.17 251.88 992.7 251.11 988.62 253.25C985.24 255.03 968.9 258.16 969.62 259.79C970.33 261.42 997.44 257.25 992.07 258.79C979.86 262.3 966.62 267.29 967.02 268.58C967.42 269.87 985.51 266.73 985.98 267.27C986.45 267.81 971.01 272.6 968.42 274.4C965.83 276.19 984.64 276.2 985.56 277.09C986.48 277.98 956.66 282.85 957.82 284.54C958.98 286.23 990.1 283.88 986.16 286.11C982.23 288.34 953.61 295.59 956.12 295.85C958.63 296.11 967.83 296.82 964.71 298.83C961.59 300.84 955.31 307.65 957.17 308.12C958.84 308.55 1021.85 311.55 1034.41 312.15C1035.6 312.21 1036.7 311.47 1037.06 310.33C1037.92 307.62 1040.1 303.03 1044.85 303.48C1051.55 304.12 1044.27 300.33 1035.22 298.31C1026.17 296.28 1037.91 294.64 1042.04 294.46C1046.17 294.28 1031.91 289.87 1024.02 288.35C1016.13 286.83 1031.4 287.46 1035.98 286.14C1040.55 284.82 1008.6 277.74 1011.05 277.26C1013.49 276.78 1027.76 281.28 1029.33 277.48C1030.9 273.68 1005.29 269.31 1009.32 268.01C1013.35 266.71 1037.79 267.77 1034.23 265.32C1030.67 262.86 1002.93 260.64 1005.35 259.97C1007.77 259.3 1024.26 259.6 1022.72 257.99C1021.18 256.38 997.22 251.84 1001.91 251.63C1006.6 251.42 1018.67 251.82 1014.62 250.04C1012.14 248.95 1002.93 248.37 998.71 240.56L998.68 240.58Z" fill="#282133"/>
<path d="M1132.06 225.15C1131.53 223.5 1129.31 223.25 1128.44 224.75C1126.4 228.25 1124.14 231.24 1122.14 231.74C1119.2 232.46 1119.2 232.93 1116.33 234.77C1113.92 236.32 1118.21 236.12 1120.52 235.54C1122.66 235.01 1127.03 234.56 1124.16 236.5C1121.79 238.11 1110.75 240.43 1111.09 242.09C1111.43 243.75 1129.66 240.91 1125.99 242.19C1117.65 245.1 1108.51 249.43 1108.67 250.73C1108.83 252.04 1121.02 249.79 1121.29 250.35C1121.56 250.91 1110.98 254.94 1109.13 256.6C1107.28 258.26 1119.7 259.19 1120.23 260.12C1120.76 261.05 1100.69 264.45 1101.32 266.19C1101.95 267.93 1122.68 267.11 1119.91 269.14C1117.14 271.18 1097.66 277 1099.3 277.39C1100.94 277.78 1106.96 278.93 1104.74 280.78C1102.52 282.63 1097.83 289.11 1099.02 289.68C1100.21 290.25 1151.12 297.67 1151.12 297.67C1151.12 297.67 1152.91 288.37 1157.28 289.33C1161.65 290.29 1157.14 286.16 1151.33 283.7C1145.52 281.24 1153.39 280.18 1156.14 280.19C1158.88 280.21 1149.82 275.12 1144.72 273.22C1139.63 271.32 1149.67 272.7 1152.79 271.6C1155.92 270.5 1135.38 261.89 1137.03 261.53C1138.68 261.17 1147.75 266.35 1149.08 262.64C1150.42 258.92 1133.86 253.32 1136.62 252.22C1139.38 251.12 1155.44 253.37 1153.28 250.75C1151.12 248.13 1132.98 244.56 1134.64 244.01C1136.29 243.46 1147.16 244.56 1146.27 242.88C1145.38 241.2 1129.92 235.5 1133.03 235.52C1136.14 235.54 1144.08 236.53 1141.55 234.55C1140.05 233.38 1134.37 232.38 1132.04 225.13L1132.06 225.15Z" fill="#282133"/>
<path d="M1168.82 217.4C1169.03 215.39 1171.66 214.77 1172.75 216.47C1175.67 221.01 1178.7 224.83 1180.93 225.34C1184.24 226.11 1184.35 226.74 1187.82 229.03C1190.74 230.96 1186.1 231.01 1183.49 230.4C1181.08 229.84 1176.3 229.55 1179.79 231.97C1182.69 233.98 1195.03 236.32 1195.03 238.6C1195.03 240.88 1174.85 238.39 1179.07 239.86C1188.65 243.19 1199.41 248.4 1199.52 250.19C1199.63 251.98 1186.06 249.84 1185.9 250.62C1185.74 251.4 1197.96 256.09 1200.32 258.21C1202.67 260.34 1189.55 262.52 1189.18 263.84C1188.81 265.16 1211.09 268.27 1210.79 270.69C1210.49 273.1 1188.07 273.54 1191.5 276.1C1194.92 278.66 1217.08 285.13 1215.41 285.78C1213.73 286.43 1207.53 288.45 1210.32 290.8C1213.11 293.15 1217.57 314.53 1216.42 315.39C1215.27 316.25 1164.27 317.27 1164.27 317.27C1164.27 317.27 1160.32 304.75 1155.84 306.38C1151.36 308.02 1155.29 302.06 1160.99 298.27C1166.69 294.48 1158 293.63 1155.07 293.86C1152.14 294.09 1160.74 286.48 1165.79 283.52C1170.84 280.56 1160.37 283.18 1156.78 281.92C1153.19 280.66 1173.33 267.4 1171.48 267.03C1169.63 266.66 1161.04 274.4 1158.79 269.44C1156.54 264.48 1173.07 255.61 1169.87 254.32C1166.67 253.03 1149.94 257.3 1151.67 253.57C1153.41 249.84 1172.08 243.62 1170.19 243C1168.3 242.38 1156.88 244.69 1157.47 242.33C1158.06 239.97 1173.39 231.06 1170.06 231.33C1166.73 231.59 1158.43 233.53 1160.71 230.65C1162.05 228.96 1167.82 227.19 1168.82 217.4Z" fill="#282133"/>
<path d="M1440 263.81V451.99H0V399.38C31.3 396.67 62.8 394.12 86.11 392.64C97.32 391.93 108.19 391.24 118.78 390.57H118.79C135.39 389.51 151.28 388.5 166.66 387.51C182.07 386.52 196.96 385.55 211.51 384.59C232.66 383.2 253.1 381.83 273.37 380.43H273.38C273.87 380.39 274.35 380.36 274.84 380.32H274.85C280.59 379.93 286.31 379.53 292.04 379.13C293.89 379 295.74 378.87 297.59 378.74C300.55 378.53 303.52 378.32 306.49 378.11C307.55 378.03 308.61 377.96 309.66 377.88C320.91 377.08 332.21 376.26 343.67 375.41C363.62 373.95 384.03 372.4 405.4 370.74C407.98 370.54 410.58 370.33 413.2 370.13C417.64 369.78 422.12 369.42 426.65 369.06C429.93 368.81 433.25 368.55 436.59 368.28C436.65 368.28 436.7 368.27 436.76 368.27C438.72 368.11 440.7 367.95 442.68 367.79C446.59 367.48 450.54 367.16 454.53 366.83C460.81 366.33 467.18 365.81 473.67 365.28C476.77 365.02 479.89 364.77 483.04 364.51C494.16 363.6 505.61 362.65 517.44 361.65C522.94 361.2 528.53 360.73 534.2 360.25C541.58 359.63 549.12 358.99 556.81 358.33C557.61 358.26 558.42 358.19 559.23 358.12C564.35 357.69 569.54 357.25 574.81 356.8C579.6 356.39 584.46 355.97 589.38 355.55C591.47 355.36 593.58 355.18 595.71 355C601.75 354.48 607.9 353.95 614.14 353.41C614.36 353.39 614.57 353.37 614.79 353.35C615.58 353.28 616.38 353.22 617.17 353.14C619.33 352.95 621.5 352.76 623.67 352.56C628.64 352.12 633.63 351.65 638.64 351.16C643.99 350.65 649.36 350.12 654.76 349.56C662.34 348.79 669.95 347.98 677.61 347.14C683.09 346.54 688.59 345.92 694.11 345.29C694.5 345.25 694.89 345.2 695.28 345.16C698.72 344.76 702.18 344.36 705.64 343.96C707.51 343.74 709.38 343.52 711.26 343.29C712.6 343.14 713.94 342.98 715.28 342.81C717.99 342.49 720.7 342.16 723.42 341.83C724.99 341.64 726.56 341.44 728.14 341.25C734.65 340.45 741.19 339.63 747.74 338.8C748.19 338.74 748.63 338.69 749.07 338.63C757.33 337.58 765.63 336.5 773.96 335.4C781.41 334.42 788.88 333.42 796.38 332.4C802.51 331.58 808.66 330.74 814.83 329.89C818.17 329.43 821.52 328.96 824.87 328.5C829.37 327.88 833.87 327.25 838.38 326.62C844.23 325.8 850.1 324.98 855.98 324.14C866.36 322.68 876.78 321.19 887.22 319.7C888.99 319.45 890.77 319.2 892.54 318.94C895.62 318.5 898.71 318.06 901.8 317.61C905.89 317.03 909.98 316.44 914.07 315.86C919.07 315.14 924.07 314.42 929.08 313.71C931.34 313.38 933.6 313.05 935.86 312.73C936.55 312.63 937.24 312.53 937.93 312.43C946.31 311.24 954.69 310.03 963.09 308.84C963.54 308.78 963.98 308.71 964.43 308.65C966.97 308.28 969.5 307.92 972.04 307.56C993.4 304.52 1014.82 301.51 1036.28 298.58H1036.29L1037.61 298.4C1049.11 296.83 1060.61 295.28 1072.12 293.76C1076.45 293.19 1080.79 292.62 1085.12 292.05C1090.31 291.38 1095.5 290.71 1100.69 290.05C1107.63 289.17 1114.57 288.3 1121.5 287.45C1122.74 287.3 1123.97 287.14 1125.21 287C1128.36 286.61 1131.51 286.22 1134.66 285.84C1140.29 285.16 1145.93 284.49 1151.56 283.83C1156.59 283.24 1161.62 282.66 1166.65 282.1H1166.66C1170.66 281.65 1174.65 281.2 1178.64 280.76C1182.76 280.3 1186.88 279.86 1190.99 279.42C1193.09 279.19 1195.19 278.97 1197.28 278.75C1208.18 277.6 1219.06 276.51 1229.92 275.48C1234.68 275.03 1239.44 274.58 1244.19 274.15C1245.39 274.04 1246.6 273.93 1247.8 273.82C1249.22 273.7 1250.63 273.57 1252.05 273.45C1255.81 273.12 1259.56 272.8 1263.31 272.49C1267.65 272.12 1271.98 271.77 1276.31 271.43C1288.99 270.42 1301.62 269.52 1314.19 268.72C1323.13 268.14 1332.05 267.63 1340.93 267.17C1344.14 267 1347.36 266.84 1350.56 266.69C1355.08 266.48 1359.6 266.28 1364.1 266.1C1365.78 266.03 1367.47 265.97 1369.17 265.9C1373.43 265.73 1377.72 265.58 1382.05 265.43C1383.46 265.38 1384.87 265.33 1386.29 265.28C1392.57 265.07 1398.91 264.87 1405.3 264.69C1409.24 264.57 1413.19 264.46 1417.16 264.36C1419.55 264.29 1421.96 264.23 1424.37 264.17C1429.55 264.04 1434.75 263.92 1439.97 263.81H1440Z" fill="#282133"/>
<path opacity="0.5" d="M886.67 335.15C887.03 335.25 886.27 335.88 884.92 336.8C884.92 336.5 884.7 336.18 884.28 335.84C885.38 335.37 886.27 335.03 886.67 335.15Z" fill="#131821"/>
<path opacity="0.5" d="M1295.9 335.91C1296.26 336.01 1295.5 336.64 1294.15 337.56C1294.15 337.26 1293.93 336.94 1293.51 336.6C1294.61 336.13 1295.5 335.79 1295.9 335.91Z" fill="#1D1D2A"/>
<path d="M1440 277.6V451.99H0V430.14C51.17 426.14 121.7 420 158.09 417.69C195.05 415.34 210.77 417.71 249.85 415.61L259.01 389C259.63 387.2 262.16 387.19 262.8 388.97L271.89 414.42C274.61 414.27 277.33 414.12 280.06 413.98L289.44 386.71L292.04 379.13L292.57 377.6C293.32 375.42 296.4 375.4 297.18 377.58L297.59 378.74L300.55 387.02L302.59 392.72L309.45 411.92L309.61 412.37C310.33 412.33 311.05 412.29 311.77 412.25C325.16 411.51 338.52 410.78 351.78 410.04C357.6 409.72 363.4 409.4 369.18 409.08L378.9 380.82C379.46 379.21 381.74 379.19 382.31 380.8L391.96 407.8C392.66 407.76 393.36 407.72 394.06 407.68C394.96 406.19 395.88 404.85 396.56 404.1C398.68 401.8 392.85 400.42 391.26 399.96C390.14 399.64 399.08 395.89 405.4 392.82C408.06 391.53 410.26 390.35 411.04 389.6C411.99 388.69 410.02 388.26 407.06 387.98C401.8 387.49 393.45 387.49 393.05 386.11C392.51 384.32 405.98 380.96 410.07 379.25C410.87 378.91 411.31 378.64 411.22 378.45C411.15 378.3 410.9 378.16 410.5 378.01C407.84 377.02 398.91 376 400.45 374.19C401.16 373.36 403.21 372.05 405.4 370.74C408.67 368.77 412.25 366.78 412.09 366.37C411.82 365.68 400.08 368.56 399.91 366.95C399.73 365.34 408.49 359.91 416.51 356.25C420.03 354.64 402.47 358.29 402.11 356.25C401.76 354.21 412.38 351.23 414.65 349.23C417.39 346.82 413.18 347.41 411.12 348.08C408.89 348.81 404.76 349.1 407.06 347.16C409.8 344.86 409.8 344.28 412.62 343.36C414.25 342.84 416.03 340.1 417.69 336.65C419.13 333.68 421.57 334.04 422.8 337.33C423.4 338.94 424.11 340.24 424.87 341.29C425.93 342.76 427.07 343.77 428.11 344.52C429.56 345.58 430.83 346.12 431.43 346.7C432.65 347.9 431.39 348.22 429.44 348.24C427.45 348.26 424.74 347.97 423.22 347.97C421.28 347.97 426.87 350.86 431.3 353.45C433.72 354.88 435.8 356.21 436.11 356.94C436.46 357.77 434.98 358.06 432.98 358.16C430 358.31 425.85 358.02 424.9 358.43C423.99 358.82 429.3 360.37 434.43 362.23C438.31 363.64 442.09 365.21 443 366.6C443.37 367.16 443.21 367.54 442.68 367.79C441.68 368.28 439.35 368.33 436.76 368.27C436.71 368.27 436.65 368.27 436.59 368.26C432.68 368.18 428.24 367.88 426.93 368.56C426.69 368.68 426.61 368.85 426.65 369.06C427.02 371.14 440.24 377.14 439.11 381.33C437.88 385.93 429.05 379.6 427.46 380.06C425.87 380.52 445.82 390.99 442.82 392.37C439.82 393.75 430.11 392.14 435.05 394.44C437.47 395.57 440.83 397.64 443.31 399.45L445.48 393.15L454.53 366.83L461.67 346.09C462.51 343.66 465.94 343.64 466.8 346.06L473.67 365.28L478.3 378.26L482.16 389.05L486.91 402.35C507.04 401.17 526.38 400.02 544.66 398.91L551.73 379.12L557.98 361.61L559.23 358.12L561.86 350.75L567.04 336.27L570.53 326.49C572.02 322.3 577.96 322.34 579.41 326.54L581.59 332.88L583.26 337.73L584.93 342.61L586.28 346.52L589.33 355.4L589.38 355.55L591.14 360.64L592.39 364.29L593.6 360.89L595.69 355.04L595.71 355L601.29 339.37L606.26 325.47L607.25 322.69C608.29 319.79 612.4 319.81 613.4 322.72L618.92 338.78L619.7 341.04L623.67 352.56L623.9 353.22L623.97 353.43L626.32 360.27L627.38 363.36L636.01 388.43C638.82 387.94 641.64 387.44 644.47 386.93L653.06 362.88L653.56 361.47L653.81 360.77L655.32 356.54L656.36 353.63L656.66 352.79C657.48 350.5 660.73 350.52 661.52 352.82L662.87 356.74L663.92 359.78L664.6 361.77C665.71 360.26 669.76 358.54 673.74 357.03C678.61 355.2 683.37 353.7 682.51 353.3C680.93 352.57 670.47 353.91 671.35 351.72C671.73 350.8 674.63 348.96 677.61 347.14C678.03 346.89 678.45 346.64 678.86 346.39C682.48 344.21 685.73 342.26 684.18 342.26C681.19 342.26 673.55 343.47 676.01 340.93C677.33 339.55 682 338.39 684.6 331.04C685.82 327.57 688.25 327.2 689.68 330.33C690.61 332.38 691.57 334.18 692.53 335.48C693.27 336.48 694.01 337.17 694.72 337.41C695.51 337.68 696.08 337.93 696.55 338.2C697.75 338.87 698.3 339.67 700.26 341.41C702.55 343.45 698.43 343.15 696.22 342.38C695.92 342.28 695.58 342.18 695.22 342.09C693.1 341.56 690.37 341.42 692.7 343.59C693.06 343.93 693.63 344.29 694.33 344.67C694.62 344.83 694.94 344.99 695.28 345.16C697.42 346.21 700.27 347.37 702.36 348.47C702.88 348.74 703.35 349.01 703.75 349.27L703.98 348.61L705.64 343.96L707.1 339.89L708.57 335.77L711.58 327.34C712.72 324.16 717.18 324.13 718.38 327.22C718.38 327.22 718.42 327.33 718.44 327.38L719.78 331.26L721.51 336.3L723.41 341.83L726.41 350.56L728.85 357.65L730.42 362.22L733.02 369.77C734.67 369.45 736.32 369.14 737.98 368.82C738.42 368.74 738.86 368.65 739.3 368.57C746.32 367.23 753.36 365.92 760.42 364.66C763.87 364.03 767.32 363.42 770.77 362.83C775.75 361.96 780.74 361.12 785.73 360.31C791.55 359.36 797.38 358.46 803.2 357.6C805.58 355.82 808.56 353.9 810.77 352.81C813.1 351.67 812.16 351.44 810.21 351.36H810.14C808.26 351.29 805.49 351.36 803.76 350.89C803.49 350.82 803.25 350.73 803.04 350.63C802.92 350.57 802.84 350.5 802.8 350.42C802.64 350.16 802.78 349.79 803.13 349.33C804.36 347.74 808.17 345.11 811.67 342.75C815.53 340.15 819.03 337.87 818.33 337.65C817.38 337.36 813.83 339.65 810.88 340.47C808.92 341.02 807.22 340.92 806.73 338.98C806.39 337.65 807.35 336.14 808.87 334.63C810.52 332.99 812.82 331.34 814.82 329.89C817.7 327.81 819.98 326.14 818.85 325.52C817.11 324.56 809.79 325.44 805.62 325.18C803.46 325.05 802.14 324.61 802.86 323.46C803.15 322.99 803.74 322.5 804.52 322C809.43 318.89 822.23 315.47 820.87 314.85C819.29 314.12 808.84 315.45 809.72 313.27C810.2 312.06 815.06 309.26 818.74 307.02C821.67 305.24 823.86 303.81 822.54 303.81C821.4 303.81 819.58 303.99 817.9 304.06C815.19 304.19 812.85 304.05 814.37 302.47C814.86 301.97 815.81 301.49 816.94 300.71C818.87 299.39 821.33 297.22 822.96 292.59C824.19 289.12 826.61 288.75 828.04 291.88C829.7 295.52 831.47 298.4 833.09 298.96C835.9 299.93 835.9 300.53 838.62 302.96C840.91 305 836.8 304.7 834.58 303.93C832.53 303.22 828.34 302.59 831.07 305.14C832.82 306.78 839.59 309.04 842.36 310.98C843.15 311.53 843.62 312.06 843.54 312.54C843.51 312.74 843.34 312.88 843.05 312.98C840.2 314.05 826.03 310.99 829.22 312.54C837.19 316.4 845.91 322.12 845.74 323.82C845.56 325.52 833.88 322.49 833.61 323.22C833.48 323.57 835.77 324.99 838.37 326.62C841.15 328.36 844.3 330.33 845.21 331.46C846.97 333.65 835.02 334.74 834.49 335.95C833.96 337.16 853.21 341.77 852.57 344.03C851.94 346.29 832.03 345.03 834.67 347.71C835.26 348.31 836.67 349.17 838.47 350.15C839.89 350.92 841.58 351.77 843.29 352.62C847.63 352.19 851.96 351.8 856.29 351.45C862.08 350.98 867.85 350.6 873.61 350.3C879.21 350.01 884.78 349.8 890.34 349.69L891.39 346.74L894.5 338.03L897.14 330.64L897.59 329.38L901.79 317.61L905.22 308.02C906.26 305.12 910.37 305.14 911.37 308.06L914.06 315.86L919.13 330.6L922.56 340.56L923.77 344.07L925.17 348.13L926.72 343.8L929.91 334.87L931.19 331.29L934.69 321.48L936.83 315.49L937.92 312.43L940.86 304.19L946.85 287.42C948.35 283.23 954.28 283.26 955.73 287.47L958.26 294.83L958.71 296.13L960.12 300.22L960.79 302.17L962.99 308.57L963.08 308.84L969.5 327.51L973.53 339.22L977.3 350.16L981.52 338.36L981.71 337.81L989.49 316.04C990.65 312.8 995.24 312.83 996.35 316.08L1000.28 327.49L1003.18 335.93L1007.29 347.87L1008.66 351.84C1012.52 351.98 1016.39 352.13 1020.27 352.29L1021.99 347.47L1027.14 333.06L1034.03 313.77L1034.61 312.15L1034.77 311.7C1035.23 310.4 1036.24 309.63 1037.37 309.39C1037.58 309.34 1037.8 309.31 1038.02 309.3C1039.4 309.23 1040.81 309.92 1041.48 311.37C1041.54 311.49 1041.59 311.61 1041.63 311.74L1043.18 316.25L1048.05 330.4L1055.26 351.35L1056.09 353.76C1066.79 354.21 1077.62 354.66 1088.63 355.11C1092.37 353.07 1099.11 350.31 1103.64 349.04C1111.1 346.95 1096.7 347.72 1092.41 345.81C1091.78 345.53 1091.9 345.08 1092.54 344.52C1092.74 344.34 1092.99 344.15 1093.28 343.96H1093.29C1095.38 342.58 1099.71 340.71 1104.04 338.93C1110.58 336.25 1117.14 333.76 1116.02 333.42C1114.42 332.93 1107.38 335.83 1102.78 335.8C1100.78 335.8 1099.24 335.22 1098.81 333.58C1098.56 332.64 1099.09 331.68 1100.12 330.73C1104.86 326.32 1120.15 322.06 1117.98 320.42C1117.93 320.38 1117.86 320.34 1117.79 320.3C1115.65 319.24 1107.25 319.2 1101.04 318.74C1096.35 318.38 1092.91 317.78 1094.37 316.29C1094.55 316.11 1094.79 315.93 1095.08 315.76C1100.41 312.54 1123.8 309.85 1121.64 308.93C1119.37 307.97 1103.84 308.26 1105.31 305.98C1106.24 304.56 1115.43 301.58 1121.11 299.48C1121.15 299.46 1121.19 299.45 1121.23 299.43C1124.56 298.19 1126.64 297.25 1125.01 297.13C1123.79 297.04 1122.05 297.01 1120.24 296.96C1115.49 296.83 1110.29 296.58 1113.06 294.77C1113.95 294.19 1115.75 293.73 1117.86 292.77C1118.12 292.65 1118.4 292.52 1118.67 292.38C1119.98 291.73 1121.38 290.87 1122.74 289.68C1123.59 288.93 1124.42 288.05 1125.21 287.01C1125.67 286.4 1126.12 285.72 1126.54 284.99C1128.44 281.7 1131.58 281.28 1133.53 283.88C1133.73 284.15 1133.92 284.45 1134.09 284.78C1134.28 285.14 1134.47 285.5 1134.66 285.85C1135.66 287.67 1136.7 289.29 1137.77 290.54C1138.31 291.18 1138.85 291.73 1139.4 292.14C1139.92 292.56 1140.44 292.86 1140.95 293.03C1144.63 294.26 1144.94 294.92 1147.8 297.21H1147.81C1148.11 297.45 1148.43 297.7 1148.79 297.98C1152.01 300.45 1145.96 299.67 1142.75 298.59C1139.79 297.59 1133.66 296.44 1137.47 299.51C1140.63 302.06 1155.96 306.63 1155.27 308.93C1154.57 311.23 1129.1 305.11 1134.14 307.35C1139.6 309.77 1145.28 312.67 1149.68 315.24C1154.51 318.05 1157.8 320.47 1157.59 321.43C1157.19 323.25 1140.21 318.66 1139.75 319.43C1139.3 320.19 1153.77 327.1 1156.19 329.67C1158.6 332.24 1140.89 332.1 1140.01 333.36C1139.71 333.79 1142.76 334.89 1146.86 336.26C1150.07 337.33 1153.93 338.57 1157.34 339.76L1159.23 334.52L1165.47 317.24L1167.31 312.16L1171.71 299.96L1172.56 297.61L1175.89 288.39L1177.26 284.59L1178.65 280.76L1179.66 277.96L1181.07 274.05C1181.14 273.86 1181.22 273.68 1181.3 273.51C1182.05 272.04 1183.47 271.28 1184.92 271.22C1186.69 271.14 1188.5 272.11 1189.19 274.13L1191 279.42L1191.05 279.58L1196.01 294.18L1196.43 295.42L1200.03 305.99L1203.51 316.22L1209.04 332.48L1217.78 358.16C1221.36 355.2 1227.87 351.02 1232.29 348.97C1239.57 345.58 1225.27 347.95 1220.85 345.92C1217.15 344.22 1237.09 333.17 1242.35 329.19C1243.39 328.42 1243.85 327.91 1243.47 327.8C1242.66 327.57 1240.58 328.53 1238.12 329.6C1233.91 331.46 1228.6 333.65 1226.76 330.73C1226.57 330.43 1226.42 330.08 1226.31 329.67C1225.53 326.77 1229.4 323.29 1233.78 320.1C1238.46 316.69 1243.71 313.62 1244.55 311.91C1244.79 311.46 1244.71 311.11 1244.25 310.87C1243.14 310.29 1240.47 310.19 1237.3 310.24C1229.39 310.36 1218.36 311.37 1220.59 307.99C1222.43 305.19 1232.19 301.87 1239.4 299.4C1240.1 299.16 1240.78 298.93 1241.42 298.71C1242.22 298.44 1242.96 298.17 1243.64 297.93C1244.54 297.6 1245.32 297.3 1245.93 297.04C1247.13 296.53 1247.67 296.16 1247.24 295.97C1246.88 295.81 1246.22 295.72 1245.35 295.68C1245.06 295.66 1244.75 295.65 1244.42 295.64C1243.84 295.62 1243.2 295.62 1242.52 295.62C1237.24 295.62 1229.81 295.92 1230.73 293.77C1231.34 292.34 1236.56 289.32 1241.45 286.54C1243.43 285.41 1245.35 284.32 1246.89 283.39C1247.79 282.85 1248.56 282.36 1249.14 281.95C1250.34 281.09 1250.71 280.56 1249.7 280.56H1249.61C1249.11 280.56 1248.52 280.58 1247.88 280.62C1245.12 280.77 1241.37 281.11 1239.05 280.9C1237.11 280.71 1236.16 280.13 1237.62 278.7C1237.73 278.6 1237.85 278.49 1237.98 278.39C1239.24 277.42 1241.66 276.4 1244.2 274.15C1245.1 273.36 1246.01 272.41 1246.89 271.25C1248.15 269.6 1249.34 267.54 1250.32 264.9C1251.42 261.95 1253.2 260.6 1254.89 261C1255.31 261.1 1255.73 261.3 1256.13 261.62C1256.76 262.11 1257.34 262.87 1257.84 263.91C1259.63 267.62 1261.51 270.76 1263.32 272.49C1263.99 273.13 1264.66 273.58 1265.3 273.79C1269.46 275.14 1269.46 275.99 1273.49 279.38C1276.88 282.23 1270.79 281.8 1267.51 280.73C1264.48 279.74 1258.28 278.87 1262.31 282.42C1264.84 284.65 1274.38 287.7 1278.67 290.35C1280.06 291.2 1280.9 292.02 1280.77 292.75C1280.66 293.39 1279.37 293.65 1277.48 293.68C1270.57 293.81 1255.51 290.89 1259.58 292.75C1262 293.86 1264.47 295.07 1266.86 296.33C1269.72 297.83 1272.48 299.39 1274.91 300.88C1280.34 304.21 1284.16 307.2 1284.02 308.5C1283.86 309.94 1277.43 308.94 1272.31 308.17C1269 307.66 1266.24 307.25 1266.08 307.65C1265.95 307.99 1267.53 309.05 1269.79 310.42C1270.23 310.69 1270.71 310.98 1271.2 311.27C1275.67 313.93 1281.68 317.34 1283.24 319.17C1283.39 319.35 1283.47 319.52 1283.49 319.69C1286.13 318.38 1290.01 317.06 1293.16 315.98C1296.51 314.83 1299.04 313.96 1298.4 313.68C1297.65 313.35 1294.87 313.47 1292.29 313.45C1289.5 313.44 1286.94 313.26 1287.39 312.21C1287.53 311.88 1288.02 311.44 1288.73 310.93C1289.12 310.64 1289.58 310.33 1290.09 310.01C1290.36 309.84 1290.64 309.67 1290.93 309.49C1295.38 306.79 1302.13 303.4 1300.04 303.4C1297.1 303.4 1289.56 304.53 1291.98 302.16C1293.26 300.91 1297.67 299.85 1300.26 293.46C1300.33 293.3 1300.4 293.13 1300.46 292.96C1301.67 289.73 1304.06 289.38 1305.47 292.3C1305.59 292.55 1305.71 292.8 1305.84 293.04C1307.37 296.07 1308.97 298.41 1310.45 298.89C1313.22 299.79 1313.22 300.35 1315.91 302.61C1318.17 304.51 1314.11 304.23 1311.92 303.52C1309.9 302.86 1305.77 302.27 1308.45 304.65C1310.68 306.61 1321.11 309.53 1320.76 311.53C1320.41 313.54 1303.17 309.95 1306.63 311.53C1312.04 314 1317.8 317.3 1320.81 319.63C1320.88 319.68 1320.95 319.74 1321.02 319.79C1322.26 320.78 1322.98 321.57 1322.93 322.04C1322.88 322.54 1321.68 322.6 1320.06 322.47C1316.58 322.18 1311.15 321.01 1310.97 321.47C1310.7 322.15 1320.67 327.12 1322.41 329.15C1324.14 331.18 1312.35 332.2 1311.83 333.33C1311.47 334.12 1320.55 336.43 1325.9 338.48L1331.68 322.3L1332.74 319.31L1340.24 298.31L1342.87 290.95C1342.91 290.84 1342.96 290.73 1343.02 290.62C1344.12 288.29 1347.39 288.18 1348.69 290.3C1348.83 290.51 1348.93 290.74 1349.02 290.99L1351.65 298.61L1358.53 318.61L1359.54 321.54L1362.81 331.05L1366.27 321.36L1371.14 307.71L1374.17 299.22L1377.63 289.55L1377.9 288.79L1378.93 285.93L1382.91 274.78L1383.45 273.26L1383.77 272.37L1386.3 265.28L1388.94 257.89L1389.63 255.96L1390.04 254.81L1390.98 252.17L1391.57 250.53C1393.06 246.34 1399 246.38 1400.45 250.58L1405.31 264.69L1409.84 277.86L1413.07 287.25L1420.98 310.26L1422.02 313.27L1423.25 309.84L1428.96 293.84L1430.79 288.73L1431.57 286.55L1432.74 283.27L1434.21 279.16C1434.38 278.69 1434.62 278.29 1434.92 277.96C1435.62 277.14 1436.64 276.73 1437.66 276.74C1438.5 276.74 1439.33 277.03 1439.98 277.6H1440Z" fill="#1D1D2A"/>
<path opacity="0.2" d="M598.01 420.44C862.328 420.44 1076.6 356.162 1076.6 276.87C1076.6 197.578 862.328 133.3 598.01 133.3C333.692 133.3 119.42 197.578 119.42 276.87C119.42 356.162 333.692 420.44 598.01 420.44Z" fill="url(#paint3_radial_4503_28019)"/>
<defs>
<linearGradient id="paint0_linear_4503_28019" x1="851.56" y1="-80.0801" x2="851.56" y2="290.09" gradientUnits="userSpaceOnUse">
<stop stop-color="#13151F"/>
<stop offset="0.29" stop-color="#1D1C2F"/>
<stop offset="0.39" stop-color="#212036"/>
<stop offset="0.52" stop-color="#33283E"/>
<stop offset="0.79" stop-color="#623D53"/>
<stop offset="1" stop-color="#8C5166"/>
</linearGradient>
<radialGradient id="paint1_radial_4503_28019" cx="0" cy="0" r="1" gradientUnits="userSpaceOnUse" gradientTransform="translate(595.505 235.768) scale(304.715 193.65)">
<stop stop-color="#BA7978"/>
<stop offset="0.06" stop-color="#BF7F7A" stop-opacity="0.89"/>
<stop offset="0.23" stop-color="#CD8F81" stop-opacity="0.62"/>
<stop offset="0.4" stop-color="#D99D87" stop-opacity="0.4"/>
<stop offset="0.57" stop-color="#E2A78C" stop-opacity="0.22"/>
<stop offset="0.72" stop-color="#E8AE8F" stop-opacity="0.1"/>
<stop offset="0.87" stop-color="#ECB391" stop-opacity="0.03"/>
<stop offset="1" stop-color="#EEB592" stop-opacity="0"/>
</radialGradient>
<radialGradient id="paint2_radial_4503_28019" cx="0" cy="0" r="1" gradientUnits="userSpaceOnUse" gradientTransform="translate(592.034 265.379) rotate(-11.05) scale(143.837 122.861)">
<stop stop-color="#BA7978"/>
<stop offset="0.32" stop-color="#C98B7F" stop-opacity="0.7"/>
<stop offset="1" stop-color="#EEB592" stop-opacity="0"/>
</radialGradient>
<radialGradient id="paint3_radial_4503_28019" cx="0" cy="0" r="1" gradientUnits="userSpaceOnUse" gradientTransform="translate(601.235 276.117) scale(478.95 143.685)">
<stop stop-color="#BA7978"/>
<stop offset="0.06" stop-color="#BF7F7A" stop-opacity="0.89"/>
<stop offset="0.23" stop-color="#CD8F81" stop-opacity="0.62"/>
<stop offset="0.4" stop-color="#D99D87" stop-opacity="0.4"/>
<stop offset="0.57" stop-color="#E2A78C" stop-opacity="0.22"/>
<stop offset="0.72" stop-color="#E8AE8F" stop-opacity="0.1"/>
<stop offset="0.87" stop-color="#ECB391" stop-opacity="0.03"/>
<stop offset="1" stop-color="#EEB592" stop-opacity="0"/>
</radialGradient>
</defs>
</svg>
